<svg width="36" height="37" viewBox="0 0 36 37" fill="none" xmlns="http://www.w3.org/2000/svg">
<rect x="0.5" y="0.989136" width="35" height="35" rx="17.5" fill="white"/>
<path d="M20.8188 17.8161C20.7035 17.8929 20.5304 17.9507 20.3188 17.9507C19.992 17.9507 19.6842 17.9122 19.3766 17.8161C19.2996 17.7968 19.2419 17.7776 19.2035 17.7776C19.1458 17.7776 19.1265 17.8161 19.1265 17.8929V18.0853C19.1265 18.143 19.1457 18.1814 19.165 18.2199C19.1843 18.2391 19.2227 18.2776 19.2804 18.2968C19.5881 18.4314 19.9342 18.4891 20.3188 18.4891C20.7227 18.4891 21.0304 18.393 21.2804 18.2007C21.5303 18.0084 21.6458 17.7584 21.6458 17.4315C21.6458 17.2007 21.5881 17.0276 21.4727 16.8737C21.3574 16.7392 21.165 16.6045 20.8957 16.5083L20.3573 16.2968C20.1458 16.2199 19.992 16.143 19.9342 16.066C19.8573 15.9891 19.8189 15.9122 19.8189 15.7776C19.8189 15.4891 20.0304 15.3353 20.4727 15.3353C20.7227 15.3353 20.9727 15.3738 21.2035 15.4507C21.2804 15.4699 21.338 15.4891 21.3573 15.4891C21.415 15.4891 21.4535 15.4507 21.4535 15.3738V15.1815C21.4535 15.1238 21.4342 15.0853 21.415 15.0468C21.3958 15.0084 21.3573 14.9892 21.2996 14.9699C21.0112 14.8737 20.7227 14.8161 20.4342 14.8161C20.0689 14.8161 19.7612 14.9122 19.5303 15.0853C19.2996 15.2584 19.1843 15.5083 19.1843 15.7968C19.1843 16.2391 19.4342 16.5661 19.9342 16.7584L20.5111 16.9699C20.7034 17.0468 20.8188 17.1045 20.8957 17.1815C20.9727 17.2584 20.9919 17.3354 20.9919 17.4506C20.9919 17.6045 20.9342 17.7392 20.8188 17.8161V17.8161ZM22.8765 13.6045C22.7996 13.5277 22.6842 13.4891 22.5496 13.4891C22.415 13.4891 22.3188 13.5277 22.2419 13.6045C22.1651 13.6815 22.1265 13.7776 22.1265 13.8929C22.1265 14.0084 22.1651 14.1238 22.2419 14.1815C22.3188 14.2584 22.415 14.2968 22.5496 14.2968C22.6842 14.2968 22.7804 14.2584 22.8573 14.1815C22.9342 14.1045 22.9728 14.0084 22.9728 13.8929C22.9728 13.7776 22.9535 13.6622 22.8765 13.6045ZM22.7612 14.9122H22.3573C22.2611 14.9122 22.2227 14.9507 22.2227 15.0468V18.2391C22.2227 18.3353 22.2611 18.3738 22.3573 18.3738H22.7612C22.8573 18.3738 22.8957 18.3353 22.8957 18.2391V15.0468C22.8957 14.9699 22.8573 14.9122 22.7612 14.9122ZM24.5689 15.6814C24.7419 15.4891 25.0111 15.393 25.3958 15.393C25.5881 15.393 25.7804 15.4122 25.9535 15.4699C26.0112 15.4891 26.0304 15.4891 26.0688 15.4891C26.1265 15.4891 26.165 15.4507 26.165 15.3546V15.1623C26.165 15.1045 26.1457 15.0468 26.1265 15.0276C26.1072 15.0084 26.0688 14.9699 26.0304 14.9507C25.7804 14.893 25.5303 14.8353 25.2996 14.8353C24.7612 14.8353 24.3573 14.9892 24.0496 15.3161C23.7612 15.6238 23.6074 16.0853 23.6074 16.6622C23.6074 17.2391 23.7419 17.6814 24.0304 17.9892C24.3188 18.2968 24.7226 18.4506 25.2611 18.4506C25.5496 18.4506 25.8189 18.4122 26.0304 18.3161C26.0881 18.2968 26.1265 18.2776 26.1457 18.2391C26.165 18.2199 26.165 18.1622 26.165 18.1045V17.9122C26.165 17.816 26.1265 17.7776 26.0688 17.7776C26.0496 17.7776 26.0112 17.7776 25.9727 17.7968C25.7612 17.8545 25.5496 17.8929 25.3573 17.8929C24.992 17.8929 24.7227 17.7968 24.5496 17.6045C24.3766 17.4122 24.2996 17.1045 24.2996 16.7007V16.6045C24.3188 16.1815 24.3958 15.8737 24.5689 15.6814V15.6814ZM14.1458 18.3738H14.5497C14.6458 18.3738 14.6842 18.3353 14.6842 18.2391V15.8353C14.6842 15.5083 14.6073 15.2584 14.4342 15.0853C14.2612 14.9122 14.0304 14.8161 13.7034 14.8161C13.2612 14.8161 12.7997 14.9699 12.3574 15.2968C12.2035 14.9699 11.915 14.8161 11.492 14.8161C11.0689 14.8161 10.6458 14.9699 10.2227 15.2584L10.1843 15.0468C10.1843 14.9892 10.1651 14.9699 10.1265 14.9507C10.1073 14.9315 10.0689 14.9315 10.0304 14.9315H9.72274C9.62659 14.9315 9.58807 14.9699 9.58807 15.0661V18.2583C9.58807 18.3546 9.62659 18.393 9.72274 18.393H10.1266C10.2227 18.393 10.2612 18.3546 10.2612 18.2583V15.6622C10.5881 15.4699 10.915 15.3545 11.2612 15.3545C11.4535 15.3545 11.5882 15.4122 11.665 15.5277C11.7419 15.643 11.7997 15.7968 11.7997 16.0276V18.2391C11.7997 18.3353 11.8381 18.3738 11.9342 18.3738H12.3381C12.4343 18.3738 12.4727 18.3353 12.4727 18.2391V15.8737V15.7584C12.4727 15.7199 12.4727 15.6814 12.4727 15.6622C12.8189 15.4507 13.1458 15.3546 13.4727 15.3546C13.665 15.3546 13.7996 15.4122 13.8765 15.5277C13.9535 15.643 14.0112 15.7969 14.0112 16.0276V18.2391C14.0112 18.3353 14.0496 18.3738 14.1458 18.3738V18.3738ZM17.7997 15.0468V17.6045C17.4727 17.8161 17.1458 17.9315 16.8189 17.9315C16.6073 17.9315 16.4535 17.8737 16.3574 17.7584C16.2612 17.643 16.2227 17.4699 16.2227 17.2199V15.0468C16.2227 14.9507 16.1843 14.9122 16.0881 14.9122H15.6842C15.5881 14.9122 15.5497 14.9507 15.5497 15.0468V17.4315C15.5497 17.7584 15.6266 18.0276 15.7997 18.2007C15.9728 18.3738 16.2227 18.4699 16.5496 18.4699C16.992 18.4699 17.4343 18.316 17.8573 18.0084L17.8958 18.2391C17.8958 18.2968 17.915 18.3161 17.9535 18.3353C17.9728 18.3546 18.0112 18.3546 18.0688 18.3546H18.3574C18.4535 18.3546 18.4919 18.316 18.4919 18.2199V15.0468C18.4919 14.9507 18.4535 14.9122 18.3574 14.9122H17.9535C17.8381 14.9122 17.7997 14.9699 17.7997 15.0468" fill="black"/>
<path d="M25.4342 22.7392C26.4342 21.8929 26.7034 20.143 26.4919 19.8737C26.3957 19.7584 25.9342 19.643 25.3572 19.643C24.7419 19.643 24.0111 19.7776 23.4535 20.1622C23.2804 20.2775 23.3188 20.4314 23.4919 20.4122C24.0881 20.3353 25.4342 20.1815 25.6842 20.4891C25.9149 20.7968 25.4149 22.066 25.1842 22.6237C25.1265 22.7968 25.2611 22.8545 25.4342 22.7392V22.7392ZM24.6265 20.9315C22.5303 21.8161 20.2419 22.2584 18.1649 22.2584C15.0881 22.2584 12.1073 21.4122 9.70349 20.0084C9.66498 19.9892 9.62655 19.9699 9.58804 19.9699C9.45347 19.9699 9.37653 20.1238 9.5111 20.2584C11.7419 22.2776 14.7035 23.4891 17.9726 23.4891C20.3188 23.4891 23.0304 22.7584 24.8957 21.3738C25.2227 21.143 24.9534 20.7968 24.6265 20.9315Z" fill="black"/>
<rect x="0.5" y="0.989136" width="35" height="35" rx="17.5" stroke="black"/>
</svg>
