<svg width="36" height="37" viewBox="0 0 36 37" fill="none" xmlns="http://www.w3.org/2000/svg">
<rect x="0.5" y="0.989136" width="35" height="35" rx="17.5" fill="white"/>
<path d="M10 23.8225H16.6667V25.1558H10V23.8225ZM10 19.8225H16.6667V21.1558H10V19.8225ZM24.6667 17.1558H11.3333C10.9797 17.1558 10.6406 17.0153 10.3905 16.7653C10.1405 16.5152 10 16.1761 10 15.8225V11.8225C10 11.4688 10.1405 11.1297 10.3905 10.8797C10.6406 10.6296 10.9797 10.4891 11.3333 10.4891H24.6667C25.0203 10.4891 25.3594 10.6296 25.6095 10.8797C25.8595 11.1297 26 11.4688 26 11.8225V15.8225C26 16.1761 25.8595 16.5152 25.6095 16.7653C25.3594 17.0153 25.0203 17.1558 24.6667 17.1558ZM11.3333 11.8225V15.8225H24.6667V11.8225H11.3333ZM24.6667 26.4891H20.6667C20.313 26.4891 19.9739 26.3487 19.7239 26.0986C19.4738 25.8486 19.3333 25.5094 19.3333 25.1558V21.1558C19.3333 20.8022 19.4738 20.463 19.7239 20.213C19.9739 19.9629 20.313 19.8225 20.6667 19.8225H24.6667C25.0203 19.8225 25.3594 19.9629 25.6095 20.213C25.8595 20.463 26 20.8022 26 21.1558V25.1558C26 25.5094 25.8595 25.8486 25.6095 26.0986C25.3594 26.3487 25.0203 26.4891 24.6667 26.4891ZM20.6667 21.1558V25.1558H24.6667V21.1558H20.6667Z" fill="black"/>
<rect x="0.5" y="0.989136" width="35" height="35" rx="17.5" stroke="black"/>
</svg>
