<svg width="36" height="36" viewBox="0 0 36 36" fill="none" xmlns="http://www.w3.org/2000/svg">
<rect width="36" height="36" rx="18" fill="white"/>
<path d="M10 23.3333H16.6667V24.6667H10V23.3333ZM10 19.3333H16.6667V20.6667H10V19.3333ZM24.6667 16.6667H11.3333C10.9797 16.6667 10.6406 16.5262 10.3905 16.2761C10.1405 16.0261 10 15.687 10 15.3333V11.3333C10 10.9797 10.1405 10.6406 10.3905 10.3905C10.6406 10.1405 10.9797 10 11.3333 10H24.6667C25.0203 10 25.3594 10.1405 25.6095 10.3905C25.8595 10.6406 26 10.9797 26 11.3333V15.3333C26 15.687 25.8595 16.0261 25.6095 16.2761C25.3594 16.5262 25.0203 16.6667 24.6667 16.6667ZM11.3333 11.3333V15.3333H24.6667V11.3333H11.3333ZM24.6667 26H20.6667C20.313 26 19.9739 25.8595 19.7239 25.6095C19.4738 25.3594 19.3333 25.0203 19.3333 24.6667V20.6667C19.3333 20.313 19.4738 19.9739 19.7239 19.7239C19.9739 19.4738 20.313 19.3333 20.6667 19.3333H24.6667C25.0203 19.3333 25.3594 19.4738 25.6095 19.7239C25.8595 19.9739 26 20.313 26 20.6667V24.6667C26 25.0203 25.8595 25.3594 25.6095 25.6095C25.3594 25.8595 25.0203 26 24.6667 26ZM20.6667 20.6667V24.6667H24.6667V20.6667H20.6667Z" fill="black"/>
</svg>
