<svg width="35" height="37" viewBox="0 0 35 37" fill="none" xmlns="http://www.w3.org/2000/svg">
<rect x="0.5" y="0.989136" width="33.8571" height="35" rx="16.9286" fill="white"/>
<path d="M14.5714 14.2034V18.7749C14.5714 18.9264 14.5112 19.0717 14.4041 19.1789C14.2969 19.2861 14.1516 19.3463 14 19.3463C13.8484 19.3463 13.7031 19.2861 13.5959 19.1789C13.4888 19.0717 13.4286 18.9264 13.4286 18.7749V14.2034C13.4286 14.0519 13.4888 13.9065 13.5959 13.7994C13.7031 13.6922 13.8484 13.632 14 13.632C14.1516 13.632 14.2969 13.6922 14.4041 13.7994C14.5112 13.9065 14.5714 14.0519 14.5714 14.2034ZM17.4286 23.632C17.277 23.632 17.1317 23.6922 17.0245 23.7994C16.9173 23.9065 16.8571 24.0519 16.8571 24.2034V25.9177C16.8571 26.0693 16.9173 26.2146 17.0245 26.3218C17.1317 26.4289 17.277 26.4891 17.4286 26.4891C17.5801 26.4891 17.7255 26.4289 17.8326 26.3218C17.9398 26.2146 18 26.0693 18 25.9177V24.2034C18 24.0519 17.9398 23.9065 17.8326 23.7994C17.7255 23.6922 17.5801 23.632 17.4286 23.632ZM17.4286 14.4891C17.277 14.4891 17.1317 14.5493 17.0245 14.6565C16.9173 14.7637 16.8571 14.909 16.8571 15.0606V21.9177C16.8571 22.0693 16.9173 22.2146 17.0245 22.3218C17.1317 22.4289 17.277 22.4891 17.4286 22.4891C17.5801 22.4891 17.7255 22.4289 17.8326 22.3218C17.9398 22.2146 18 22.0693 18 21.9177V15.0606C18 14.909 17.9398 14.7637 17.8326 14.6565C17.7255 14.5493 17.5801 14.4891 17.4286 14.4891ZM14 20.4891C13.8484 20.4891 13.7031 20.5493 13.5959 20.6565C13.4888 20.7637 13.4286 20.909 13.4286 21.0606V22.7749C13.4286 22.9264 13.4888 23.0717 13.5959 23.1789C13.7031 23.2861 13.8484 23.3463 14 23.3463C14.1516 23.3463 14.2969 23.2861 14.4041 23.1789C14.5112 23.0717 14.5714 22.9264 14.5714 22.7749V21.0606C14.5714 20.909 14.5112 20.7637 14.4041 20.6565C14.2969 20.5493 14.1516 20.4891 14 20.4891ZM10.5714 17.0606C10.4199 17.0606 10.2745 17.1208 10.1674 17.2279C10.0602 17.3351 10 17.4804 10 17.632V19.3463C10 19.4978 10.0602 19.6432 10.1674 19.7503C10.2745 19.8575 10.4199 19.9177 10.5714 19.9177C10.723 19.9177 10.8683 19.8575 10.9755 19.7503C11.0827 19.6432 11.1429 19.4978 11.1429 19.3463V17.632C11.1429 17.4804 11.0827 17.3351 10.9755 17.2279C10.8683 17.1208 10.723 17.0606 10.5714 17.0606ZM17.4286 10.4891C17.277 10.4891 17.1317 10.5493 17.0245 10.6565C16.9173 10.7637 16.8571 10.909 16.8571 11.0606V12.7749C16.8571 12.9264 16.9173 13.0717 17.0245 13.1789C17.1317 13.2861 17.277 13.3463 17.4286 13.3463C17.5801 13.3463 17.7255 13.2861 17.8326 13.1789C17.9398 13.0717 18 12.9264 18 12.7749V11.0606C18 10.909 17.9398 10.7637 17.8326 10.6565C17.7255 10.5493 17.5801 10.4891 17.4286 10.4891ZM20.8571 13.632C20.7056 13.632 20.5602 13.6922 20.4531 13.7994C20.3459 13.9065 20.2857 14.0519 20.2857 14.2034V15.9177C20.2857 16.0693 20.3459 16.2146 20.4531 16.3218C20.5602 16.4289 20.7056 16.4891 20.8571 16.4891C21.0087 16.4891 21.154 16.4289 21.2612 16.3218C21.3684 16.2146 21.4286 16.0693 21.4286 15.9177V14.2034C21.4286 14.0519 21.3684 13.9065 21.2612 13.7994C21.154 13.6922 21.0087 13.632 20.8571 13.632ZM24.2857 17.0606C24.1342 17.0606 23.9888 17.1208 23.8817 17.2279C23.7745 17.3351 23.7143 17.4804 23.7143 17.632V19.3463C23.7143 19.4978 23.7745 19.6432 23.8817 19.7503C23.9888 19.8575 24.1342 19.9177 24.2857 19.9177C24.4373 19.9177 24.5826 19.8575 24.6898 19.7503C24.7969 19.6432 24.8571 19.4978 24.8571 19.3463V17.632C24.8571 17.4804 24.7969 17.3351 24.6898 17.2279C24.5826 17.1208 24.4373 17.0606 24.2857 17.0606ZM20.8571 17.632C20.7056 17.632 20.5602 17.6922 20.4531 17.7994C20.3459 17.9065 20.2857 18.0519 20.2857 18.2034V22.7749C20.2857 22.9264 20.3459 23.0717 20.4531 23.1789C20.5602 23.2861 20.7056 23.3463 20.8571 23.3463C21.0087 23.3463 21.154 23.2861 21.2612 23.1789C21.3684 23.0717 21.4286 22.9264 21.4286 22.7749V18.2034C21.4286 18.0519 21.3684 17.9065 21.2612 17.7994C21.154 17.6922 21.0087 17.632 20.8571 17.632Z" fill="black"/>
<rect x="0.5" y="0.989136" width="33.8571" height="35" rx="16.9286" stroke="black"/>
</svg>
