<svg width="36" height="37" viewBox="0 0 36 37" fill="none" xmlns="http://www.w3.org/2000/svg">
<rect x="0.5" y="0.989136" width="35" height="35" rx="17.5" fill="white"/>
<path d="M14.6868 10.5451C13.8356 10.5852 13.2543 10.7211 12.7461 10.9208C12.2202 11.1257 11.7744 11.4008 11.3309 11.8459C10.8874 12.291 10.6143 12.7371 10.4107 13.2638C10.2138 13.7731 10.0803 14.3549 10.0427 15.2065C10.0051 16.0582 9.99681 16.332 10.001 18.5045C10.0051 20.677 10.0147 20.9493 10.056 21.8027C10.0967 22.6538 10.232 23.2349 10.4317 23.7432C10.637 24.2691 10.9117 24.7147 11.357 25.1584C11.8023 25.6021 12.248 25.8746 12.776 26.0784C13.2848 26.2751 13.8668 26.4091 14.7183 26.4464C15.5698 26.4837 15.8439 26.4923 18.0158 26.4882C20.1876 26.484 20.4611 26.4744 21.3144 26.4339C22.1677 26.3935 22.7457 26.2571 23.2542 26.0584C23.7802 25.8527 24.2261 25.5784 24.6694 25.133C25.1128 24.6875 25.3858 24.2411 25.5891 23.7141C25.7863 23.2053 25.9202 22.6234 25.9571 21.7725C25.9944 20.9186 26.0032 20.6459 25.9991 18.4738C25.9949 16.3016 25.9851 16.0293 25.9447 15.1761C25.9042 14.323 25.7687 13.7437 25.5691 13.235C25.3635 12.7091 25.0891 12.2638 24.644 11.8198C24.1989 11.3758 23.7522 11.103 23.2253 10.9001C22.7161 10.7032 22.1345 10.5689 21.283 10.5321C20.4315 10.4953 20.1574 10.4859 17.9847 10.49C15.8121 10.4942 15.5401 10.5035 14.6868 10.5451ZM14.7802 25.0072C14.0002 24.9733 13.5767 24.8437 13.2944 24.7352C12.9207 24.5912 12.6544 24.4171 12.3732 24.1386C12.0919 23.86 11.9191 23.5928 11.7732 23.2198C11.6635 22.9376 11.5315 22.5146 11.4951 21.7346C11.4554 20.8915 11.4471 20.6384 11.4424 18.5026C11.4378 16.3667 11.4459 16.1139 11.4829 15.2705C11.5162 14.4912 11.6466 14.0672 11.7549 13.7851C11.8989 13.4109 12.0724 13.1451 12.3516 12.864C12.6308 12.5829 12.8972 12.4097 13.2704 12.2638C13.5524 12.1537 13.9754 12.0229 14.7551 11.9857C15.5988 11.9457 15.8516 11.9377 17.9871 11.9331C20.1227 11.9285 20.3761 11.9365 21.2201 11.9736C21.9995 12.0075 22.4237 12.1366 22.7054 12.2456C23.0793 12.3896 23.3454 12.5625 23.6266 12.8422C23.9077 13.1219 24.081 13.3873 24.2269 13.7614C24.3371 14.0425 24.468 14.4654 24.5048 15.2456C24.545 16.0893 24.5541 16.3422 24.5579 18.4776C24.5618 20.613 24.5542 20.8666 24.5173 21.7096C24.4832 22.4896 24.3539 22.9133 24.2453 23.1958C24.1013 23.5695 23.9277 23.8359 23.6483 24.1168C23.3689 24.3978 23.1029 24.5709 22.7294 24.7168C22.4478 24.8267 22.0243 24.9579 21.2452 24.9951C20.4016 25.0347 20.1488 25.0431 18.0124 25.0477C15.8761 25.0523 15.6241 25.0437 14.7804 25.0072M21.302 14.2134C21.3024 14.4033 21.359 14.5888 21.4648 14.7465C21.5705 14.9042 21.7207 15.027 21.8962 15.0994C22.0718 15.1717 22.2649 15.1904 22.451 15.153C22.6372 15.1157 22.8081 15.0239 22.9421 14.8894C23.0762 14.7549 23.1673 14.5836 23.204 14.3973C23.2407 14.211 23.2213 14.018 23.1483 13.8427C23.0753 13.6675 22.9519 13.5177 22.7938 13.4126C22.6358 13.3074 22.45 13.2514 22.2601 13.2518C22.0056 13.2523 21.7617 13.3539 21.582 13.5342C21.4023 13.7146 21.3016 13.9589 21.302 14.2134ZM13.8924 18.4971C13.8969 20.7659 15.7394 22.601 18.0078 22.5966C20.2761 22.5923 22.1125 20.7499 22.1081 18.4811C22.1038 16.2123 20.2608 14.3768 17.9921 14.3813C15.7234 14.3857 13.8881 16.2286 13.8924 18.4971ZM15.3333 18.4942C15.3323 17.9668 15.4877 17.4509 15.7798 17.0118C16.072 16.5727 16.4878 16.23 16.9747 16.0272C17.4616 15.8244 17.9977 15.7706 18.5152 15.8724C19.0327 15.9743 19.5083 16.2274 19.882 16.5996C20.2557 16.9718 20.5106 17.4464 20.6146 17.9635C20.7185 18.4806 20.6667 19.0169 20.4659 19.5046C20.265 19.9923 19.924 20.4094 19.486 20.7033C19.0481 20.9972 18.5328 21.1546 18.0054 21.1557C17.6552 21.1564 17.3082 21.0882 16.9844 20.9548C16.6606 20.8214 16.3662 20.6256 16.1181 20.3784C15.8699 20.1313 15.6729 19.8377 15.5383 19.5144C15.4036 19.1911 15.334 18.8444 15.3333 18.4942Z" fill="black"/>
<rect x="0.5" y="0.989136" width="35" height="35" rx="17.5" stroke="black"/>
</svg>
