<svg width="136" height="149" viewBox="0 0 136 149" fill="none" xmlns="http://www.w3.org/2000/svg">
<rect y="0.489136" width="136" height="148" rx="12" fill="white"/>
<path fill-rule="evenodd" clip-rule="evenodd" d="M68.1695 30.5229C65.8813 30.6378 61.6633 31.2973 59.106 31.9402C57.3326 32.386 56.1263 32.8202 54.7692 33.5013C52.8034 34.4878 51.5214 35.4944 50.7108 36.688C50.0773 37.6208 49.3396 39.466 49.0363 40.8757C48.6586 42.6318 48.6728 41.9787 48.6724 57.5765C48.6721 68.8929 48.6919 72.3309 48.7654 73.7421C48.864 75.6353 48.8662 76.2251 48.791 80.7161C48.7405 83.7317 48.7626 84.088 49.0613 85.0716C49.2388 85.6561 49.6701 86.5475 50.0813 87.1791C50.4806 87.7926 51.4793 88.7412 52.1206 89.1161C53.473 89.9068 55.9752 90.748 58.1929 91.1575C60.1974 91.5277 60.8086 91.565 64.8214 91.5628C66.8675 91.5617 69.3481 91.5234 70.334 91.4776C74.3044 91.2933 75.0776 91.2497 76.0832 91.154C79.8081 90.7991 81.904 90.0333 83.4894 88.4479C84.9418 86.9955 85.7913 85.0263 86.1237 82.3411C86.18 81.8863 86.2575 80.5188 86.2959 79.3022C86.3343 78.0856 86.396 76.3597 86.4331 75.4669C86.5485 72.6875 86.5821 70.0983 86.5165 69.0383C86.4807 68.4605 86.4767 67.3789 86.507 66.5357C86.6894 61.4757 86.7579 57.3355 86.7146 53.9917C86.6893 52.0387 86.6917 50.1972 86.7198 49.8996C86.7974 49.0805 86.8809 43.1153 86.8279 42.1778C86.7319 40.4777 86.2422 38.8639 85.1727 36.723C84.3621 35.1004 83.8365 34.4369 82.826 33.7611C81.0208 32.5536 77.7333 31.3407 75.0686 30.8991C74.0634 30.7325 72.6958 30.5996 71.5514 30.5572C70.9748 30.5359 70.2139 30.5076 69.8605 30.4943C69.5071 30.4811 68.7461 30.494 68.1695 30.5229ZM70.0458 32.1615C70.0822 33.8671 70.2675 39.2496 70.3071 39.7538C70.3567 40.3842 70.4599 40.6237 70.7459 40.7715C71.0227 40.9147 71.2996 40.8458 71.5263 40.5774L71.7077 40.3626L71.6631 36.913C71.6385 35.0157 71.5986 33.0145 71.5744 32.4658L71.5304 31.4681L71.9975 31.4689C72.7641 31.47 75.1679 31.7583 75.6774 31.9101C75.7573 31.9339 75.7818 32.0808 75.7929 32.6004C75.8006 32.9635 75.8384 34.1584 75.877 35.2559C75.9155 36.3533 75.9472 37.9299 75.9475 38.7595C75.9479 40.3565 75.9847 40.5733 76.2824 40.7325C76.5097 40.8542 76.8736 40.8141 77.0693 40.6457C77.2367 40.5017 77.2565 40.4298 77.3155 39.7495C77.3508 39.3426 77.3688 37.5107 77.3555 35.6786C77.3385 33.3299 77.3529 32.3474 77.4042 32.3474C77.5048 32.3474 78.7704 32.7762 79.4532 33.0417L80.0162 33.2605L79.9759 33.5188C79.9365 33.7715 80.2351 39.9362 80.3154 40.526C80.366 40.8976 80.4968 41.1031 80.7491 41.2076C81.1097 41.3569 81.4729 41.1868 81.6148 40.8021C81.6535 40.6974 81.643 39.3727 81.5876 37.3226C81.5383 35.5019 81.5069 34.0032 81.5178 33.9923C81.5287 33.9814 81.771 34.1167 82.0563 34.2929C83.0914 34.9323 83.7356 35.7295 84.5018 37.3188C85.2081 38.784 85.6695 40.1404 85.8588 41.3075C85.9289 41.7395 85.958 42.474 85.9582 43.8179L85.9584 45.7176L81.2802 45.7625C78.7072 45.7872 75.769 45.8075 74.7509 45.8075C72.6645 45.8075 72.5125 45.8342 72.321 46.2358C72.173 46.5464 72.2404 46.8792 72.5021 47.1299L72.707 47.3263L78.6732 47.3097C81.9547 47.3006 84.9363 47.2745 85.299 47.2517L85.9584 47.2104L85.9595 47.439C85.9601 47.5647 85.9239 48.2991 85.8792 49.071L85.7977 50.4745L85.4892 50.4726C84.2737 50.4647 73.0937 50.9065 72.8724 50.971C72.5878 51.0541 72.2955 51.3937 72.2955 51.6411C72.2955 51.8914 72.5067 52.2216 72.7366 52.3308C72.947 52.4305 73.3935 52.4234 78.5652 52.2368C81.6457 52.1256 84.5389 52.0154 84.9946 51.9918L85.8232 51.949V53.7753V55.6017L85.0622 55.6415C84.6437 55.6635 81.9424 55.7294 79.0593 55.788C75.953 55.8512 73.7256 55.9231 73.5923 55.9647C73.1825 56.0924 72.9921 56.6168 73.2056 57.0297C73.4254 57.4547 73.1316 57.443 79.7605 57.2917C84.5453 57.1826 85.782 57.1718 85.8234 57.2388C85.8635 57.3036 85.8394 60.0821 85.7985 60.1218C85.7935 60.1266 82.6598 60.1936 78.8347 60.2706C72.3284 60.4015 71.8662 60.4186 71.6652 60.536C71.3839 60.7003 71.2683 60.9312 71.3065 61.2526C71.3451 61.5773 71.5682 61.8221 71.8787 61.8803C72.1143 61.9246 83.1238 61.7404 84.869 61.6631L85.7749 61.6229L85.7253 63.1677C85.698 64.0173 85.6687 64.7196 85.6601 64.7284C85.6516 64.7372 82.8312 64.8072 79.3928 64.8838C75.9542 64.9605 72.9813 65.0392 72.7863 65.0586C72.5096 65.0862 72.3868 65.1388 72.2282 65.2973C71.8582 65.6674 71.9918 66.295 72.4841 66.4989C72.6343 66.5611 73.9423 66.5481 78.3653 66.4404C81.4937 66.3643 84.404 66.3019 84.8325 66.3019H85.6118L85.5991 67.5868C85.5869 68.8226 85.5812 68.8718 85.4511 68.8716C84.0215 68.8693 72.8909 69.2325 72.7569 69.2858C72.491 69.3918 72.3562 69.5715 72.3156 69.8745C72.2734 70.1891 72.4302 70.5104 72.6818 70.625C72.7704 70.6654 73.2239 70.6984 73.6896 70.6984C74.4822 70.6984 83.3638 70.4671 84.9592 70.4049L85.6848 70.3767L85.7258 70.5953C85.7745 70.8546 85.6487 73.5333 85.5849 73.5969C85.5607 73.6209 82.817 73.6407 79.4878 73.6407H73.4347L73.2371 73.8616C72.9279 74.2072 72.9972 74.6883 73.3862 74.8966C73.5968 75.0093 78.6598 75.1588 82.333 75.1608L85.5728 75.1625L85.5289 75.7817C85.5047 76.1222 85.485 76.8047 85.485 77.2982V78.1956L84.4873 78.2031C83.9386 78.2072 82.2113 78.2393 80.6488 78.2746C79.0864 78.3098 76.9253 78.3583 75.8465 78.3823C73.736 78.4291 73.5354 78.4622 73.3871 78.7876C73.1523 79.3029 73.4418 79.7178 74.0933 79.7997C74.5346 79.8552 83.5257 79.7744 84.6967 79.7044L85.4302 79.6605L85.3865 80.4722C85.1998 83.933 84.6631 85.6622 83.2103 87.4837C83.0126 87.7315 82.7537 88.0035 82.6349 88.088L82.419 88.2419L82.4623 86.5047C82.5076 84.6915 82.4904 84.5295 82.223 84.244C81.8948 83.8937 81.3034 84.0211 81.1079 84.4842C81.0171 84.6993 81.0088 85.0108 81.0469 86.7625C81.0712 87.8786 81.0981 88.8629 81.1067 88.95C81.1203 89.0888 81.053 89.1372 80.5626 89.3412C80.0661 89.5478 78.5616 89.9747 78.3286 89.9752C78.2312 89.9754 78.2378 89.7603 78.4242 86.8466C78.4807 85.9628 78.5064 85.1715 78.4812 85.088C78.456 85.0045 78.357 84.8526 78.2613 84.7503C78.1196 84.5991 78.0294 84.5647 77.7784 84.5664C77.4451 84.5687 77.32 84.6362 77.1424 84.9092C77.0494 85.052 77.0157 85.3699 76.9626 86.6001C76.9266 87.4335 76.8966 88.5771 76.896 89.1414L76.8949 90.1675L76.7089 90.2043C76.548 90.2362 75.5816 90.3163 74.2455 90.4085L73.862 90.435L73.824 90.1206C73.8031 89.9478 73.7893 88.8931 73.7933 87.7771C73.798 86.4424 73.775 85.6843 73.726 85.562C73.6457 85.3613 73.2863 85.1061 73.0835 85.1057C72.8435 85.1052 72.5087 85.319 72.4041 85.5396C72.3112 85.7352 72.3076 86.0277 72.3726 88.1083C72.4129 89.3997 72.4349 90.4658 72.4214 90.4774C72.3856 90.5085 68.8903 90.6458 66.8337 90.6969L65.0582 90.7411V90.5903C65.0582 90.3065 64.787 86.4247 64.7526 86.2164C64.7079 85.9457 64.396 85.6511 64.1049 85.6046C63.7799 85.5528 63.4225 85.8016 63.3387 86.138C63.2943 86.3158 63.3297 86.9412 63.4609 88.3002C63.5625 89.3517 63.6638 90.3312 63.686 90.4768L63.7262 90.7416L62.3123 90.6962C61.5347 90.6712 60.8299 90.6323 60.7462 90.6095L60.594 90.5683L60.5888 88.2596C60.5852 86.6739 60.5582 85.8666 60.5025 85.6818C60.3386 85.1378 59.7057 84.9484 59.3247 85.3293C59.1621 85.4919 59.0197 85.9341 59.07 86.12C59.1117 86.2742 59.2616 90.3834 59.2268 90.4183C59.1405 90.5045 57.0845 90.0589 55.8539 89.6873L55.1384 89.4712L55.0591 88.5227C55.0155 88.001 54.9631 87.1785 54.9427 86.6949C54.8944 85.5473 54.8711 85.4177 54.6711 85.18C54.34 84.7865 53.7516 84.8759 53.5247 85.3541C53.4231 85.5681 53.4195 85.7003 53.4887 86.6509C53.5312 87.2331 53.5962 87.9643 53.6334 88.2758C53.6704 88.5874 53.6858 88.8572 53.6674 88.8756C53.6114 88.9316 52.7689 88.5099 52.2756 88.179C51.4409 87.6189 50.7997 86.8305 50.2438 85.6803C49.7551 84.6692 49.6896 84.3216 49.654 82.552L49.6223 80.9794L53.5356 80.9795C57.0623 80.9796 60.5486 80.9008 61.3254 80.8035C61.9369 80.7269 62.2792 80.0971 61.9419 79.6692C61.6394 79.2854 61.6225 79.284 58.6237 79.3897C55.3682 79.5045 49.7726 79.6352 49.7128 79.5979C49.6722 79.5726 49.6652 78.8252 49.6918 77.3469L49.7042 76.6567L49.9273 76.6149C50.05 76.5919 51.4653 76.606 53.0725 76.6463C56.9585 76.7439 61.6932 76.6406 62.128 76.4489C62.41 76.3245 62.6234 76.0411 62.6229 75.7916C62.6225 75.5774 62.357 75.2251 62.122 75.1269C61.9319 75.0475 61.572 75.0422 59.9421 75.095C58.8684 75.1297 56.1293 75.169 53.8551 75.1824L49.7202 75.2065L49.6798 74.4236C49.6576 73.993 49.6202 73.2572 49.5967 72.7885L49.5539 71.9363L49.8752 71.8923C50.052 71.8681 50.9305 71.8485 51.8274 71.8487C53.8936 71.8493 60.3756 71.7228 60.8514 71.6725C61.3595 71.6189 61.6762 71.3389 61.6762 70.9432C61.6762 70.5981 61.5315 70.3776 61.2193 70.2472C61.0151 70.1618 60.5779 70.1584 57.9984 70.2218C54.8329 70.2997 51.6517 70.4046 50.3669 70.4734L49.5899 70.515L49.5463 70.2517C49.5224 70.1068 49.5025 69.293 49.5021 68.4434L49.5013 66.8986L51.4797 66.9554C53.9319 67.0257 58.7881 67.0091 60.1768 66.9257L61.2137 66.8633L61.4281 66.649C61.8345 66.2425 61.6605 65.5851 61.1063 65.433C60.9919 65.4015 60.2136 65.399 59.3765 65.4273C58.5395 65.4555 55.9904 65.497 53.7118 65.5194L49.569 65.5601V64.0044V62.4485L53.306 62.4534C56.6592 62.4577 59.9935 62.3694 60.3573 62.2667C60.5809 62.2034 60.8602 61.8958 60.9035 61.665C60.9528 61.4024 60.8003 61.0757 60.5527 60.9135C60.3921 60.8082 60.1901 60.8056 57.8992 60.8783C56.5355 60.9217 54.6131 60.9729 53.6273 60.9924C52.6414 61.0117 51.325 61.0467 50.7019 61.07L49.569 61.1125V58.9664V56.8205L52.934 56.8617C54.7847 56.8845 57.5621 56.9399 59.106 56.985C62.4861 57.0837 62.343 57.0839 62.5961 56.979C63.1941 56.7313 63.1582 55.8829 62.54 55.657C62.1011 55.4966 59.0143 55.4079 53.9329 55.4095L49.569 55.411V53.7313V52.0516L50.8988 52.0071C51.6302 51.9826 53.3727 51.9613 54.7711 51.9599C56.1695 51.9584 58.3371 51.9306 59.588 51.8982C62.0769 51.8338 62.1824 51.8159 62.3853 51.4237C62.5224 51.1585 62.5142 50.9581 62.3556 50.698C62.1187 50.3094 62.1812 50.3123 56.799 50.4377C54.1059 50.5004 51.3824 50.5688 50.7468 50.5898L49.5911 50.6278L49.5462 48.6799C49.5215 47.6085 49.5089 46.7277 49.5182 46.7225C49.5275 46.7174 52.1375 46.7389 55.3182 46.7704C58.4989 46.8018 61.34 46.8184 61.6317 46.8071C62.1337 46.7877 62.1728 46.7748 62.3588 46.5666C62.4977 46.4111 62.5555 46.2759 62.5555 46.1063C62.5555 45.7738 62.4619 45.6296 62.1306 45.4526L61.8453 45.3002H55.7128C52.3399 45.3002 49.5573 45.2772 49.5293 45.2492C49.4572 45.1772 49.6151 42.6563 49.74 41.8844C50.1355 39.4391 51.1235 37.2342 52.3162 36.1352L52.6465 35.8308L52.665 36.169C52.7125 37.0412 53.0298 40.9887 53.0632 41.1237C53.1226 41.3637 53.4676 41.6139 53.7391 41.6139C53.9106 41.6139 54.0304 41.5594 54.1736 41.4162C54.4125 41.1773 54.4088 41.2944 54.2717 38.3256C54.217 37.1395 54.1789 35.9669 54.1872 35.72C54.1994 35.3535 54.1775 35.2436 54.0678 35.1221C53.9337 34.9734 53.9337 34.9729 54.0678 34.8745C54.325 34.6857 55.8976 33.9136 56.5695 33.6463C57.1142 33.4296 58.1032 33.0914 58.1923 33.0914C58.2027 33.0914 58.2309 33.5861 58.2547 34.1906C58.4057 38.0058 58.5691 40.1451 58.7336 40.4633C58.8618 40.7112 59.2299 40.8922 59.4787 40.8298C59.5715 40.8065 59.7274 40.6925 59.825 40.5765C59.9923 40.3777 60.0002 40.3365 59.9618 39.8568C59.9394 39.5769 59.8884 38.1153 59.8485 36.6086C59.8086 35.102 59.7496 33.6106 59.7174 33.2944C59.6852 32.9781 59.6663 32.7119 59.6754 32.7027C59.7496 32.6274 63.3859 31.9416 63.711 31.9416H63.8891L63.9346 33.2098C64.0127 35.3902 64.1805 38.9099 64.2426 39.6719C64.3198 40.6183 64.4846 40.8699 65.0277 40.8699C65.2865 40.8699 65.6136 40.5342 65.6242 40.2577C65.6618 39.271 65.4348 32.1168 65.3566 31.8315C65.3194 31.6955 65.3537 31.6832 65.9824 31.6062C67.3011 31.4447 67.6806 31.4187 68.8459 31.4098L70.0296 31.4008L70.0458 32.1615ZM89.5023 55.0818C88.9106 55.2179 88.4541 55.8104 88.1954 56.7778C87.8553 58.0493 87.8288 59.2822 87.971 67.2488C88.1244 75.8454 88.0728 81.1637 87.8156 83.2792C87.5051 85.8315 86.6826 87.6234 85.0808 89.2374C84.1012 90.2244 83.3665 90.6665 81.6296 91.3143C78.7663 92.3822 77.3103 92.6927 74.7305 92.7859C74.3026 92.8014 73.0091 92.8669 71.8558 92.9315C69.3645 93.071 64.899 93.0882 63.1981 92.9648C59.2826 92.6806 55.6141 92.1611 53.7447 91.6261C52.2252 91.1912 51.0331 90.4398 50.0653 89.3068C49.3324 88.4487 48.6542 86.8371 48.326 85.173C48.0121 83.5818 47.7293 81.341 47.6049 79.4576C47.4893 77.7077 47.4473 71.5212 47.5355 69.2442C47.6655 65.8924 47.7044 61.5862 47.6141 60.5526C47.5207 59.4837 47.3417 58.6619 47.0973 58.1797C46.4095 56.8224 45.0754 56.6435 44.446 57.8243C44.1636 58.3543 44.0914 58.8584 44.0908 60.305L44.0902 61.5116L43.6461 61.996C42 63.7914 41.5683 65.7962 42.4422 67.587C42.6443 68.0014 42.8349 68.2404 43.4822 68.8915L44.2746 69.6887L44.3534 70.2781C44.5058 71.418 44.5603 72.2316 44.5626 73.4039C44.5664 75.2131 44.6904 78.5234 44.7984 79.6943C44.8517 80.2709 44.9882 81.6711 45.1019 82.8057C45.2157 83.9403 45.354 85.3283 45.4094 85.89C45.6885 88.7208 46.1111 90.1052 47.1366 91.5468C48.2232 93.0745 49.8262 94.2206 52.038 95.0514C53.9874 95.7837 55.2849 95.9791 59.2218 96.1336C60.2713 96.1749 61.2727 96.2291 61.4471 96.254C61.75 96.2975 61.7743 96.3177 61.9891 96.7054C62.3973 97.4424 62.5084 98.1024 62.5413 99.9858C62.5729 101.798 62.4885 103.564 62.2826 105.4C62.0634 107.354 61.9575 107.631 61.0867 108.526C60.6094 109.016 60.2836 109.229 58.9369 109.93C57.7414 110.552 56.2625 111.388 55.7917 111.708C55.6243 111.822 55.2564 112.145 54.9742 112.427C54.3065 113.093 54.0056 113.674 54.0133 114.281C54.0183 114.671 54.2168 115.615 54.3818 116.033C54.5101 116.358 55.329 116.737 56.2313 116.89C56.5853 116.95 60.1346 117.301 63.5701 117.617C65.9155 117.832 77.0252 117.798 78.8564 117.57C80.5472 117.359 82.08 116.752 82.4966 116.129C82.6383 115.916 82.6737 115.774 82.6899 115.351C82.7269 114.385 82.5371 113.798 82.0128 113.256C81.6073 112.838 81.2522 112.629 79.7486 111.925C77.3709 110.812 75.7508 109.872 75.2216 109.298C74.9898 109.046 74.9373 108.935 74.8971 108.613C74.8282 108.062 74.9099 100.973 74.9954 100.087C75.1712 98.2647 75.4561 96.931 75.7028 96.7763C75.7818 96.7268 76.2117 96.6357 76.6581 96.574C78.4426 96.3273 79.2244 96.1451 82.2283 95.2758C84.5481 94.6046 85.188 94.3867 85.9246 94.0171C87.276 93.3392 88.6877 92.1578 89.3663 91.1371C90.3004 89.7321 90.9809 87.4047 91.3378 84.3952C91.401 83.8626 91.4673 82.3867 91.506 80.6519C91.5412 79.0767 91.5999 77.1287 91.6364 76.323C91.6729 75.5174 91.7226 74.0972 91.7467 73.1672C91.7979 71.1944 91.7746 71.2795 92.5489 70.2268C93.4486 69.0035 93.7561 68.1597 93.7572 66.9107C93.7584 65.7314 93.4911 64.9659 92.4115 63.0553C92.0098 62.3444 91.745 61.7918 91.6821 61.5334C91.6119 61.2444 91.573 60.5333 91.5472 59.0646C91.5093 56.9081 91.4474 56.367 91.1782 55.842C90.8645 55.23 90.1892 54.9237 89.5023 55.0818ZM90.281 55.9921C90.6558 56.3075 90.7007 56.6053 90.7593 59.166C90.8219 61.8984 90.7982 61.7937 91.7203 63.4187C92.9009 65.4992 93.1703 66.502 92.8962 67.7952C92.7583 68.4454 92.4699 69.0181 91.8771 69.8191C90.9979 71.0068 91.0222 70.9157 90.958 73.2611C90.9278 74.3627 90.8722 76.0249 90.8344 76.955C90.7966 77.885 90.7482 79.5743 90.7271 80.7089C90.6713 83.687 90.5321 85.1091 90.1122 86.9888C89.8911 87.9789 89.4267 89.4023 89.1373 89.9764C88.4501 91.3402 87.0563 92.6101 85.3835 93.3969C84.7167 93.7106 83.9245 93.9771 82.0692 94.5123C79.2594 95.3229 78.4514 95.512 76.6133 95.7887C75.1566 96.0081 75.1976 95.9874 74.9086 96.6512C74.3009 98.0469 73.987 101.93 74.0743 106.973L74.1091 108.989L74.2916 109.362C74.6859 110.167 76.171 111.098 79.8911 112.872C81.6273 113.7 81.9001 114.009 81.9001 115.15C81.9001 115.757 81.8445 115.827 81.087 116.177C79.6095 116.859 78.1874 116.967 70.4692 116.976C65.4399 116.983 65.0254 116.968 61.8115 116.658C60.8629 116.567 59.3258 116.43 58.3958 116.354C55.9994 116.158 55.3525 116.032 55.1494 115.722C55.0412 115.557 54.7783 114.519 54.7776 114.254C54.7769 114 55.0835 113.428 55.4216 113.052C55.9107 112.508 57.1905 111.7 59.0259 110.777C61.0088 109.78 62.3085 108.632 62.6932 107.537C63.1483 106.242 63.5227 100.706 63.2988 98.581C63.1434 97.1055 62.6205 95.869 62.021 95.5589C61.8905 95.4915 61.1509 95.4357 59.3405 95.3567C56.3823 95.2278 55.6298 95.163 54.5223 94.942C51.8349 94.4058 49.5133 93.1925 48.19 91.6326C46.8548 90.0588 46.4277 88.6651 46.0861 84.7672C46.0291 84.1162 45.8917 82.7161 45.7807 81.6558C45.4973 78.9489 45.4514 78.2033 45.3744 75.0611C45.3033 72.1555 45.2486 71.3197 45.043 69.9899L44.9184 69.1837L44.2347 68.5376C43.073 67.4397 42.7607 66.7759 42.8217 65.5344C42.878 64.3894 43.2582 63.5751 44.1991 62.5844C44.5007 62.2667 44.7823 61.9404 44.8247 61.8591C44.8755 61.762 44.902 61.2173 44.9023 60.2696C44.9027 58.7344 44.947 58.4239 45.2164 58.0669C45.4157 57.8027 45.7324 57.7699 46.0058 57.9849C46.253 58.1793 46.5684 58.8703 46.6923 59.489C46.8909 60.4804 46.9576 62.6181 46.8724 65.2616C46.6624 71.7785 46.6391 73.4638 46.7188 76.3769C46.8057 79.5528 46.8671 80.5547 47.0736 82.1631C47.2567 83.5906 47.6282 85.6054 47.8404 86.3229C47.9339 86.6391 48.011 86.965 48.0119 87.0471C48.0141 87.2827 48.6721 88.67 49.0648 89.2667C49.4616 89.8698 50.4011 90.8152 51.0233 91.2374C52.5005 92.24 54.0446 92.6734 58.1929 93.2497C62.6173 93.8644 67.4021 94.0064 72.2955 93.6685C73.0953 93.6132 74.2671 93.5501 74.8996 93.5282C75.532 93.5063 76.232 93.46 76.4552 93.4253C76.6784 93.3906 77.1959 93.3128 77.6051 93.2525C78.8939 93.0626 80.6108 92.5698 82.2383 91.9229C83.9241 91.2528 84.6947 90.7629 85.6911 89.7283C87.6898 87.6527 88.4788 85.6255 88.7281 81.9264C88.8584 79.9935 88.8832 74.9424 88.7904 69.278C88.7395 66.1717 88.6991 62.3823 88.7008 60.857C88.7035 58.2743 88.7137 58.0378 88.8498 57.4135C89.1543 56.0157 89.6839 55.4897 90.281 55.9921Z" fill="black"/>
</svg>
