<svg width="36" height="37" viewBox="0 0 36 37" fill="none" xmlns="http://www.w3.org/2000/svg">
<rect x="0.5" y="0.989136" width="35" height="35" rx="17.5" fill="white"/>
<path d="M19.7985 15.1543H22.7233V16.8916H19.7985V15.1543ZM19.7985 20.2449H22.7233V21.1887H19.7985V20.2449Z" fill="black"/>
<path d="M16.5375 16.0189H19.4624V16.8863H16.5375V16.0189ZM16.5375 20.2449H19.4624V21.824H16.5375V20.2449Z" fill="black"/>
<path d="M13.2769 15.5419H16.2018V16.8864H13.2769V15.5419ZM13.2769 20.245H16.2018V21.1888H13.2769V20.245Z" fill="black"/>
<path d="M10.0027 16.4171H12.9408V16.8864H10V16.4171H10.0027ZM10.0027 20.245H12.9408V21.5578H10V20.245H10.0027Z" fill="black"/>
<path d="M23.0591 16.193H26V16.8863H23.0591V16.193ZM23.0591 20.2449H26V20.759H23.0591V20.2449Z" fill="black"/>
<path d="M18.2999 19.694C17.5294 19.694 17.1081 19.288 17.1081 18.5525C17.1081 17.867 17.5667 17.44 18.2999 17.44C19.0598 17.44 19.2118 17.867 19.2171 17.8855L19.2251 17.9039L18.7532 18.1913L18.7425 18.1702C18.7425 18.1676 18.6012 17.9488 18.3026 17.9488C17.916 17.9488 17.7267 18.1491 17.7267 18.5577C17.7267 18.9637 17.9293 19.1878 18.3026 19.1957H18.3106C18.5799 19.1957 18.7452 18.9743 18.7452 18.969L18.7559 18.9505L19.2251 19.2326L19.2171 19.2511C19.2118 19.2643 19.0385 19.694 18.2999 19.694ZM21.838 19.6729V17.4558H23.6004V17.9409H22.4433V18.3389H23.1445V18.795H22.4433V19.1957H23.6004V19.6782H21.838V19.6729ZM20.9235 19.6729V18.8187H20.065V19.6729H19.4598V17.4558H20.065V18.3416H20.9235V17.4558H21.5287V19.6729H20.9235ZM15.799 19.6729V17.9514H15.1431V17.4558H17.0655V17.9514H16.4043V19.6729H15.799ZM14.2206 19.6729V17.4558H14.8259V19.6729H14.2206ZM25.5121 18.9057C25.7707 18.7713 25.8987 18.5367 25.8987 18.2203C25.8987 17.7273 25.5654 17.4584 24.9628 17.4584H23.9123V19.6755H24.5202V19.027H24.9175L25.2828 19.6755H25.9947L25.5121 18.9057ZM24.9655 18.5446H24.5202V17.9382H24.9655C25.2055 17.9382 25.3228 18.0358 25.3228 18.2414C25.3228 18.447 25.2055 18.5446 24.9655 18.5446ZM10.8639 19.694C10.3466 19.694 10.0293 19.4646 10.016 19.4541L10 19.4435L10.176 18.9031L10.2026 18.9295C10.2053 18.9321 10.4799 19.1852 10.8959 19.1852C11.1918 19.1852 11.2291 19.1061 11.2291 19.0296C11.2291 18.8873 11.0372 18.8372 10.8159 18.7792C10.4826 18.6922 10.072 18.5815 10.072 18.1122C10.072 17.6746 10.3893 17.4347 10.9678 17.4347C11.3518 17.4347 11.701 17.614 11.837 17.8749L11.8477 17.8934L11.3784 18.186L11.3678 18.1649C11.2798 18.0252 11.1145 17.9435 10.9332 17.9435C10.7039 17.9435 10.7039 18.0463 10.7039 18.0779C10.7039 18.2018 10.8879 18.2519 11.0985 18.3126C11.4371 18.4075 11.861 18.5208 11.861 19.0085C11.861 19.4567 11.5437 19.6808 10.8959 19.694C10.8879 19.694 10.8745 19.694 10.8639 19.694ZM12.6342 19.6729V17.9514H11.9783V17.4558H13.9007V17.9514H13.2395V19.6729H12.6342Z" fill="black"/>
<rect x="0.5" y="0.989136" width="35" height="35" rx="17.5" stroke="black"/>
</svg>
