<svg width="136" height="149" viewBox="0 0 136 149" fill="none" xmlns="http://www.w3.org/2000/svg">
<rect y="0.489258" width="136" height="148" rx="12" fill="white"/>
<path d="M110.292 55.705C109.112 60.5645 108.637 62.342 108.252 63.7937C105.635 73.6673 102.95 83.5222 100.287 93.3834C97.4575 103.869 94.629 114.354 91.798 124.839C91.6319 125.456 91.4584 126.043 91.0702 126.6C89.5249 128.824 87.1794 129.862 84.7965 130.669C79.1545 132.577 73.3439 132.802 67.4546 132.042C65.3576 131.771 63.8023 130.869 62.3094 129.363C50.2975 117.242 38.2207 105.186 26.1177 93.1574C25.033 92.079 24.8045 90.9705 25.1503 89.6411C26.7967 83.3125 28.4569 76.9864 30.1395 70.6665C32.0793 63.3805 34.0578 56.1057 36.0001 48.821C38.0509 41.1268 40.0731 33.4251 42.1265 25.7309C42.5122 24.2842 43.3647 24.2942 44.1349 25.0044C44.3171 25.1729 46.4491 27.1539 47.3803 28.0252C49.9155 30.3968 52.6255 33.0319 55.097 35.471C60.437 40.7411 65.978 45.8052 71.3592 51.0316C74.9691 54.5379 83.9327 63.0647 83.9327 63.0647C83.9327 63.0647 90.888 63.6327 94.589 63.3918C98.2901 63.1508 101.461 63.1321 105.163 61.3184C106.91 60.4621 108.431 59.0466 109.201 57.9294C109.68 57.2341 110.15 56.5464 110.291 55.7075C107.485 52.9015 104.634 50.0505 101.784 47.2007C92.2561 37.6729 82.7269 28.1437 73.1991 18.6159C72.701 18.1178 72.2529 17.5361 71.4815 17.4937C71.3916 17.4887 71.3105 17.5474 71.2868 17.6335L70.8586 19.1888C70.8586 19.1888 67.7205 22.5054 60.5119 24.2255C51.874 26.2876 44.9125 25.7259 44.9125 25.7259L83.9315 63.0622C83.9315 63.0622 93.754 63.9722 100.113 62.9024C109.109 61.3896 110.291 55.7038 110.291 55.7038L110.292 55.705Z" fill="white"/>
<path d="M70.86 19.1847L71.2882 17.6294C71.3119 17.5432 71.393 17.4846 71.4829 17.4896C72.2543 17.532 72.7012 18.1124 73.2005 18.6117C82.7283 28.1408 92.2562 37.6687 101.785 47.1966C104.635 50.0463 107.486 52.8973 110.292 55.7034C110.151 56.5422 109.682 57.23 109.202 57.9253C108.432 59.0425 107.025 60.3169 105.268 61.1532C101.948 62.7335 98.4375 63.3551 94.8001 63.7246C91.1103 64.0991 87.5291 63.7396 83.9329 63.0618C83.0853 62.902 82.4175 62.5475 81.8034 61.9359C78.2359 58.3884 74.7021 54.8071 71.0922 51.3008C65.711 46.0732 60.4359 40.7369 55.0959 35.4668C52.6244 33.0277 49.9144 30.3939 47.3792 28.021C46.2783 26.99 45.3171 26.09 44.1338 25.0003C43.3636 24.2913 42.5111 24.28 42.1254 25.7267C40.0732 33.4209 38.0511 41.1226 35.999 48.8168C34.0567 56.1016 32.0782 63.3776 30.1384 70.6624C28.4558 76.9823 26.7956 83.3071 25.1492 89.637C24.8034 90.9664 25.0319 92.0761 26.1166 93.1533C38.2208 105.183 50.2976 117.238 62.3083 129.359C63.8012 130.865 65.3565 131.768 67.4535 132.037C73.3428 132.798 79.1534 132.573 84.7954 130.664C87.1783 129.858 89.5238 128.819 91.0691 126.596C91.4573 126.038 91.6308 125.452 91.7969 124.835C94.6279 114.35 97.4564 103.865 100.286 93.3792C102.949 83.5181 105.634 73.6632 108.251 63.7895C108.636 62.3378 109.742 57.9378 110.291 55.7009" stroke="black" stroke-width="1.12342" stroke-linecap="round" stroke-linejoin="round"/>
<path d="M82.3115 65.6707C80.8123 71.6011 79.1634 77.4916 77.5769 83.3983C75.008 92.9598 72.4953 102.536 69.9538 112.105C68.4609 117.724 66.9655 123.342 65.4364 128.951C65.3803 129.155 64.9758 130.862 64.8897 131.285" stroke="black" stroke-width="1.12342" stroke-linecap="round" stroke-linejoin="round"/>
<path d="M103.157 54.4364C95.4181 46.6561 87.6415 38.9107 79.9611 31.073C77.532 28.594 74.9843 26.2261 72.7 23.6047" stroke="black" stroke-width="1.12342" stroke-linecap="round" stroke-linejoin="round"/>
<path d="M72.5751 28.5979C80.4391 36.6703 88.323 44.7228 96.1508 52.8289C97.8359 54.5739 99.6059 56.2528 101.098 58.1814" stroke="black" stroke-width="1.12342" stroke-linecap="round" stroke-linejoin="round"/>
<path d="M71.895 17.5706C71.3457 19.1221 70.4832 19.5365 68.4573 20.8609C64.5079 23.4448 60.0491 24.5096 55.4743 25.2273C52.8268 25.6417 50.163 25.8327 47.4868 25.7079C46.9413 25.6829 45.3198 25.6255 44.6682 25.4944" stroke="black" stroke-width="1.12342" stroke-linecap="round" stroke-linejoin="round"/>
<path d="M43.5783 29.4678L79.398 65.5334L62.5741 125.097L26.7544 89.0316L43.5783 29.4678Z" fill="white"/>
<path d="M43.7671 53.0124C43.6049 52.8551 43.4276 52.8176 43.329 52.9325L40.8812 55.781C40.7589 55.9233 40.7976 56.2566 40.9711 56.5312C41.0098 56.5948 41.0547 56.6485 41.0996 56.6935C41.2457 56.8345 41.4105 56.8707 41.4978 56.7559L43.9769 53.8674C44.0992 53.7251 44.0592 53.4018 43.8795 53.1459C43.8433 53.0948 43.8046 53.0511 43.7659 53.0124H43.7671ZM45.4398 54.4341C45.3986 54.3942 45.3549 54.3617 45.31 54.338C45.089 54.2082 44.933 54.353 44.9517 54.6326L45.3399 60.4557C45.3537 60.6616 45.4648 60.8826 45.6033 61.0161C45.6533 61.0636 45.7057 61.0998 45.7581 61.1197C45.9803 61.2034 46.1363 61.0586 46.1101 60.7615L45.7269 55.0495C45.7119 54.8298 45.5933 54.5839 45.4398 54.4341ZM45.2563 51.0763C45.0528 50.8791 44.8394 50.8978 44.7845 51.1188L44.5985 51.8752L42.6824 50.0253C42.4964 49.8456 42.2942 49.863 42.2443 50.064C42.1944 50.265 42.3117 50.5908 42.4977 50.7718L47.075 55.1918C47.2622 55.3728 47.462 55.3641 47.5131 55.1531C47.5643 54.9422 47.4457 54.6264 47.2585 54.4454L45.3512 52.6042L45.5372 51.8478C45.5908 51.6281 45.4673 51.2836 45.2551 51.0776" fill="black"/>
<path d="M51.0491 61.7187C50.8968 61.5714 50.7295 61.5327 50.6297 61.6288L48.7885 63.44C48.6699 63.5624 48.7049 63.8682 48.8746 64.1153C48.9096 64.1615 48.9458 64.2027 48.982 64.2389C49.1455 64.3962 49.3178 64.4386 49.4239 64.3375L51.26 62.5451C51.3786 62.4227 51.3374 62.0982 51.1739 61.8698C51.1352 61.8111 51.0928 61.7599 51.0491 61.7175V61.7187ZM51.2338 59.4868L50.3912 58.673C50.1965 58.4845 49.9968 58.4932 49.9419 58.7129C49.8919 58.9139 50.0068 59.2497 50.2028 59.4382L51.0453 60.252C51.2488 60.4492 51.4448 60.413 51.4947 60.2121C51.5484 59.9924 51.4385 59.6841 51.2338 59.4868ZM51.6744 57.6981L50.8319 56.8843C50.6372 56.6958 50.4349 56.7132 50.3825 56.9242C50.3301 57.1352 50.4474 57.4609 50.6434 57.6494L51.486 58.4633C51.6894 58.6605 51.8829 58.6343 51.9353 58.4233C51.9878 58.2124 51.8792 57.8953 51.6744 57.6981ZM54.0623 59.6366C53.8676 59.4482 53.6654 59.4656 53.613 59.6766L53.4857 60.1934L52.5981 59.3371C52.4122 59.1573 52.2099 59.1748 52.16 59.3758C52.1101 59.5767 52.2274 59.9025 52.4134 60.0835L53.3009 60.9398L52.9639 62.3079L51.793 61.177C51.5983 60.9885 51.3961 61.006 51.3437 61.2169C51.2912 61.4279 51.4086 61.7537 51.6045 61.9421L52.6606 62.962L50.8768 64.722L50.7795 64.6284C50.5847 64.4399 50.3825 64.4574 50.3301 64.6683C50.2777 64.8793 50.395 65.2051 50.591 65.3935L53.4744 68.1771L53.4881 68.297C53.5031 68.488 53.608 68.6939 53.7378 68.8187C53.7915 68.8699 53.8489 68.9074 53.9051 68.9248C54.1185 68.9997 54.2571 68.8375 54.2259 68.5604L53.9063 65.4435C53.8826 65.225 53.7603 64.9916 53.6067 64.8431C53.5643 64.8031 53.5206 64.7682 53.4757 64.742C53.271 64.6384 53.1187 64.7644 53.1486 65.0428L53.3621 67.1199L51.6495 65.4672L53.4332 63.7072L54.6578 64.8893C54.8612 65.0865 55.0547 65.0603 55.1071 64.8493C55.1596 64.6384 55.051 64.3213 54.8462 64.1241L53.6754 62.9932L54.0124 61.6251L54.8999 62.4814C55.0946 62.6699 55.2881 62.6437 55.338 62.4427C55.388 62.2417 55.2794 61.9234 55.0847 61.7349L54.1972 60.8786L54.3245 60.3619C54.3769 60.1509 54.2596 59.8251 54.0636 59.6366" fill="black"/>
<path d="M59.053 67.1096L60.9803 67.4429L62.3172 70.2615L59.053 67.1096ZM61.2025 66.6478C61.0664 66.5167 60.9179 66.4293 60.7756 66.4044L58.0357 65.9375C57.836 65.8988 57.7311 66.1048 57.7898 66.3994C57.8285 66.5766 57.9246 66.7451 58.0369 66.855C58.1056 66.9212 58.1792 66.9648 58.2516 66.9761L58.6723 67.051C58.6536 67.0809 58.6336 67.1196 58.6236 67.1583C58.5712 67.3693 58.6823 67.6776 58.877 67.8661L60.1277 69.0744L59.8469 70.2128L58.7646 69.168C58.5699 68.9795 58.3789 68.997 58.3265 69.2067C58.2741 69.4164 58.3852 69.726 58.5799 69.9144L59.6621 70.9592L59.1504 73.0351L57.288 71.2363C57.0932 71.0479 56.891 71.0653 56.8386 71.2763C56.7862 71.4872 56.901 71.823 57.097 72.0115L61.5682 76.3292C61.7629 76.5177 61.9664 76.5002 62.0201 76.2805C62.0738 76.0608 61.9539 75.7425 61.7592 75.554L59.8968 73.7553L60.4086 71.6795L61.4908 72.7242C61.6855 72.9127 61.879 72.8865 61.929 72.6856C61.9789 72.4846 61.8703 72.1663 61.6743 71.9778L60.5921 70.933L60.8729 69.7946L62.1237 71.0029C62.3184 71.1914 62.5094 71.1739 62.5618 70.9642C62.5718 70.9255 62.583 70.8781 62.5743 70.8232L62.8564 71.4161C62.9101 71.5284 62.98 71.6245 63.0549 71.6969C63.171 71.8093 63.3008 71.863 63.4044 71.8255C63.5642 71.7556 63.5904 71.4723 63.4543 71.1752L61.5557 67.1621C61.4634 66.9598 61.3385 66.7838 61.2025 66.6515" fill="black"/>
<path d="M66.1695 80.0342L66.3081 79.47L68.827 81.9029L68.6885 82.4671L66.1695 80.0342ZM66.4591 78.8571L66.5552 78.4652L69.0742 80.898L68.9781 81.29L66.4591 78.8571ZM69.4811 80.4961L66.4741 77.5927C66.2082 77.3355 65.9386 77.3592 65.8699 77.6376L65.4131 79.4937C65.3444 79.7708 65.5004 80.2065 65.7676 80.4636L68.7746 83.367C69.0317 83.6154 69.3013 83.5917 69.37 83.3134L69.8269 81.4572C69.8955 81.1801 69.7395 80.7445 69.4811 80.4961ZM68.9893 76.7875L69.0505 76.5391L70.2563 77.7037L70.1951 77.9521L68.9893 76.7875ZM69.1965 75.945L69.2577 75.6966L70.4635 76.8612L70.4023 77.1096L69.1965 75.945ZM69.1965 74.1675C69.0018 73.979 68.7996 73.9965 68.7471 74.2074L68.6997 74.3984L67.1119 72.8655C66.9609 72.7195 66.7949 72.7257 66.7524 72.898C66.71 73.0703 66.8098 73.3324 66.9609 73.4784L68.5487 75.0113L68.4875 75.2597L66.4566 73.2974C66.3056 73.1514 66.1483 73.1664 66.1083 73.3286C66.0684 73.4909 66.1595 73.7456 66.3105 73.8903L68.3414 75.8526L68.2803 76.101L66.6925 74.5681C66.5415 74.4221 66.373 74.4371 66.333 74.6006C66.2906 74.7729 66.3879 75.045 66.539 75.191L68.1267 76.7239L68.0606 76.9922L66.499 75.4844C66.3393 75.3296 66.182 75.3446 66.142 75.5068C66.0996 75.6791 66.1907 75.9325 66.3505 76.0873L67.912 77.5951L67.8459 77.8635L65.7701 75.8588C65.6015 75.6966 65.4218 75.7115 65.3744 75.9038C65.3269 76.096 65.4343 76.3756 65.6028 76.5379L70.4997 81.2662C70.6694 81.4298 70.8479 81.4135 70.8929 81.2313C70.9403 81.0403 70.8354 80.7495 70.6669 80.5859L68.5561 78.5476L68.6223 78.2792L70.2188 79.8208C70.3786 79.9756 70.5359 79.9618 70.5783 79.7896C70.6182 79.6273 70.5271 79.3726 70.3674 79.2179L68.7708 77.6763L68.837 77.4079L70.2213 78.7448C70.4872 79.0019 70.7581 78.9782 70.828 78.6911L70.9153 78.3366L71.1188 78.5338C71.2698 78.6799 71.4271 78.6649 71.4671 78.5026C71.507 78.3404 71.4159 78.0857 71.2648 77.9409L71.0614 77.7437L71.1488 77.3892C71.2174 77.1121 71.0601 76.6764 70.7942 76.4193L69.4099 75.0824L69.4574 74.8914C69.5098 74.6805 69.3925 74.3547 69.1965 74.1662" fill="black"/>
</svg>
