<svg width="36" height="37" viewBox="0 0 36 37" fill="none" xmlns="http://www.w3.org/2000/svg">
<rect x="0.5" y="0.989136" width="35" height="35" rx="17.5" fill="white"/>
<path d="M24.362 15.2189C24.3717 15.3602 24.3717 15.5016 24.3717 15.6442C24.3717 19.9901 21.0697 25.0023 15.0317 25.0023V24.9997C13.2481 25.0023 11.5015 24.4904 10 23.5252C10.2594 23.5565 10.52 23.5721 10.7813 23.5728C12.2594 23.5741 13.6953 23.0772 14.8582 22.1621C13.4535 22.1354 12.2217 21.2178 11.7914 19.8781C12.2835 19.9732 12.7905 19.9537 13.2735 19.8215C11.742 19.5114 10.6403 18.1633 10.6403 16.5977C10.6403 16.5833 10.6403 16.5697 10.6403 16.556C11.0966 16.8106 11.6075 16.952 12.1301 16.9676C10.6877 16.0017 10.2431 14.0792 11.1141 12.5761C12.7807 14.6308 15.2397 15.88 17.8794 16.0122C17.6149 14.8698 17.9763 13.6728 18.8291 12.8698C20.1512 11.6246 22.2306 11.6884 23.4734 13.0124C24.2086 12.8672 24.9132 12.5969 25.558 12.214C25.3129 12.9753 24.8001 13.622 24.115 14.033C24.7656 13.9561 25.4013 13.7816 26 13.5152C25.5593 14.1769 25.0042 14.7533 24.362 15.2189Z" fill="black"/>
<rect x="0.5" y="0.989136" width="35" height="35" rx="17.5" stroke="black"/>
</svg>
