<svg width="36" height="36" viewBox="0 0 36 36" fill="none" xmlns="http://www.w3.org/2000/svg">
<rect x="0.5" y="0.5" width="35" height="35" rx="17.5" fill="white"/>
<path d="M19.6 18.0001L16.8 19.6001V16.4001L19.6 18.0001Z" fill="black" stroke="black" stroke-width="1.5" stroke-linecap="round" stroke-linejoin="round"/>
<path d="M10 18.5657V17.4337C10 15.1177 10 13.9593 10.724 13.2145C11.4488 12.4689 12.5896 12.4369 14.8704 12.3721C15.9504 12.3417 17.0544 12.3201 18 12.3201C18.9448 12.3201 20.0488 12.3417 21.1296 12.3721C23.4104 12.4369 24.5512 12.4689 25.2752 13.2145C26 13.9593 26 15.1185 26 17.4337V18.5657C26 20.8825 26 22.0401 25.276 22.7857C24.5512 23.5305 23.4112 23.5633 21.1296 23.6273C20.0496 23.6585 18.9456 23.6801 18 23.6801C16.9566 23.6769 15.9133 23.6593 14.8704 23.6273C12.5896 23.5633 11.4488 23.5313 10.724 22.7857C10 22.0401 10 20.8817 10 18.5665V18.5657Z" stroke="black" stroke-width="1.5"/>
<rect x="0.5" y="0.5" width="35" height="35" rx="17.5" stroke="black"/>
</svg>
