<svg width="136" height="149" viewBox="0 0 136 149" fill="none" xmlns="http://www.w3.org/2000/svg">
<rect y="0.489136" width="136" height="148" rx="12" fill="white"/>
<g clip-path="url(#clip0_601_23)">
<path d="M93.8319 57.8881C93.9687 56.8307 93.7814 55.7667 93.6233 54.752C93.3912 53.263 93.6693 51.9478 94.3218 50.6775C95.0417 49.2748 94.7322 48.0258 93.9339 46.7969C92.3877 44.4165 90.0365 42.9488 87.6763 41.6011C84.0536 39.5325 80.1675 37.9784 76.1355 36.9234C74.179 36.411 72.172 35.9849 70.1325 35.7203C68.5415 35.514 66.9527 35.1563 65.346 35.1025C56.8448 34.8211 48.5197 35.5813 40.651 39.2028C38.0744 40.3891 35.3599 41.2367 32.6084 41.9734C30.8672 42.4398 30.3222 42.7717 31.6117 44.865C32.3763 46.1062 33.2879 47.2263 34.2129 48.315C35.953 50.3646 36.1672 52.5802 35.3072 54.9785C34.5739 57.0236 34.2398 59.1651 33.6579 61.245C33.0502 63.4135 32.5355 65.6122 32.003 67.7963C31.5074 69.8302 31.0454 71.8832 30.542 73.9182C30.0128 76.0598 29.4611 78.2002 28.933 80.3372C28.4307 82.3689 27.9665 84.4208 27.4721 86.4591C26.9518 88.6018 26.417 90.7434 25.8519 92.877C25.4472 94.4075 25.3799 96.0434 26.2253 97.6064C28.5608 101.923 32.2889 104.759 36.3948 107.119C40.2989 109.362 44.5697 110.8 48.92 111.904C53.8501 113.157 58.9225 113.685 63.9781 113.733C71.7 113.807 79.2907 112.77 86.4026 109.461C89.5252 108.009 92.3115 106.078 94.5965 103.478C95.1022 102.903 95.3321 102.207 95.3623 101.414C95.4498 99.0516 95.9151 96.715 95.7009 94.3257C95.5675 92.8356 95.914 92.6192 97.6833 92.5059C100.208 92.3456 102.881 91.1447 104.956 89.6658C107.587 87.7912 108.624 84.6237 109.406 81.6558C110.132 78.8987 110.687 74.2445 110.845 71.4123C111.048 67.775 110.473 60.3716 109.525 58.9308C108.851 57.9082 107.734 57.018 106.588 56.8453C103.717 56.4136 100.878 56.8139 98.0264 57.0886C96.6887 57.2176 95.4128 57.4855 94.0124 57.4743" fill="white"/>
<path d="M93.8319 57.8881C93.9686 56.8307 93.7814 55.7667 93.6233 54.752C93.3912 53.263 93.6693 51.9478 94.3218 50.6775C95.0417 49.2748 94.7322 48.0258 93.9339 46.7969C92.3877 44.4165 90.0365 42.9488 87.6763 41.6011C84.0536 39.5325 80.1675 37.9784 76.1355 36.9234C74.179 36.411 72.172 35.9849 70.1325 35.7203C68.5415 35.514 66.9527 35.1563 65.346 35.1025C56.8448 34.8211 48.5197 35.5813 40.651 39.2028C38.0744 40.3891 35.3599 41.2367 32.6084 41.9734C30.8672 42.4398 30.3222 42.7717 31.6117 44.865C32.3763 46.1062 33.2879 47.2263 34.2129 48.315C35.953 50.3646 36.1672 52.5802 35.3072 54.9785C34.5739 57.0236 34.2398 59.1651 33.6579 61.245C33.0502 63.4135 32.5355 65.6122 32.003 67.7963C31.5074 69.8302 31.0454 71.8832 30.542 73.9182C30.0128 76.0598 29.4611 78.2002 28.933 80.3372C28.4307 82.3689 27.9665 84.4208 27.4721 86.4591C26.9518 88.6018 26.417 90.7434 25.8519 92.877C25.4472 94.4075 25.3799 96.0434 26.2253 97.6064C28.5608 101.923 32.2889 104.759 36.3948 107.119C40.2989 109.362 44.5697 110.8 48.92 111.904C53.8501 113.157 58.9225 113.685 63.9781 113.733C71.7 113.807 79.2907 112.77 86.4026 109.461C89.5252 108.009 92.3115 106.078 94.5965 103.478C95.1022 102.903 95.3321 102.207 95.3623 101.414C95.4498 99.0516 95.9151 96.715 95.7009 94.3257C95.5675 92.8356 95.914 92.6192 97.6833 92.5059C100.208 92.3456 102.881 91.1447 104.956 89.6658C107.587 87.7912 108.624 84.6237 109.406 81.6558C110.132 78.8987 110.687 74.2445 110.845 71.4123C111.048 67.775 110.473 60.3716 109.525 58.9308C108.851 57.9082 107.734 57.018 106.588 56.8453C103.717 56.4136 100.878 56.8139 98.0264 57.0886C96.6887 57.2176 95.4128 57.4855 94.0124 57.4743" stroke="black" stroke-width="1.12123" stroke-linecap="round" stroke-linejoin="round"/>
<path d="M66.3968 81.1613C61.9758 78.7966 58.1771 76.9623 55.2944 75.6302C50.6144 73.4674 48.7341 72.6781 46.3112 72.4482C42.0303 72.0412 39.6029 72.1556 36.9927 73.6345C34.7143 74.925 33.971 77.154 33.4552 79.577C32.8576 82.3856 32.0952 85.1629 31.4067 87.9514C30.9526 89.7913 30.3786 91.6301 30.1756 93.5273C30.0994 94.2359 30.4615 94.8839 30.9706 95.4546C33.148 97.8933 35.784 99.7355 38.5837 101.36C42.3757 103.559 46.4962 104.953 50.6974 106.092C54.8796 107.225 59.1974 107.603 63.4985 107.74C71.9794 108.009 80.1475 106.72 87.4714 102.019C87.6149 101.927 87.7741 101.861 87.9176 101.772C89.4672 100.798 90.178 99.5382 90.3126 97.5637C90.4314 95.8291 90.5335 87.0275 90.6075 84.2099C90.5065 83.5091 90.1332 83.2378 89.6712 83.0135C86.2358 81.3373 82.7039 79.8932 78.8895 79.3875C74.8408 78.8504 70.9098 79.5299 67.092 80.9157C63.2305 82.3172 59.2512 83.342 55.1767 83.6717C51.498 83.9688 47.8024 83.6941 44.1551 82.8218C41.8711 82.2746 39.7453 81.455 37.6766 80.3887C36.8861 79.9817 36.2246 79.4716 35.6876 78.7798C35.6461 80.7262 35.9365 83.2591 37.3728 85.6204C41.7332 92.7895 54.5365 94.903 61.5542 89.1814C64.4672 86.8066 65.7813 83.5719 66.3957 81.1646L66.3968 81.1613Z" fill="black" stroke="black" stroke-width="1.12123" stroke-linecap="round" stroke-linejoin="round"/>
<path d="M92.0201 49.1951C91.7308 50.8119 90.7666 52.0139 89.42 52.792C84.9765 55.3608 80.227 57.0168 75.084 57.5875C72.365 57.8891 69.6393 57.9956 66.9338 57.925C64.7294 57.8678 62.4971 57.3913 60.3522 56.8184C56.5871 55.8137 52.8702 54.6252 49.2845 53.0611C44.1471 50.8209 39.2877 48.1244 34.9362 44.5634" fill="white"/>
<path d="M92.0201 49.1951C91.7308 50.8119 90.7666 52.0139 89.42 52.792C84.9765 55.3608 80.227 57.0168 75.084 57.5875C72.365 57.8891 69.6393 57.9956 66.9338 57.925C64.7294 57.8678 62.4971 57.3913 60.3522 56.8184C56.5871 55.8137 52.8702 54.6252 49.2845 53.0611C44.1471 50.8209 39.2877 48.1244 34.9362 44.5634" stroke="black" stroke-width="1.12123" stroke-linecap="round" stroke-linejoin="round"/>
<path d="M86.7459 57.5618C83.2567 59.3692 79.514 60.3447 75.6458 60.8638C73.9897 61.0858 72.3281 61.2786 70.6418 61.1688C69.4611 61.0914 68.2816 61.2562 67.0852 61.1609C64.2665 60.9355 61.5273 60.3738 58.8274 59.5699" fill="white"/>
<path d="M86.7459 57.5618C83.2567 59.3692 79.514 60.3447 75.6458 60.8638C73.9897 61.0858 72.3281 61.2786 70.6418 61.1688C69.4611 61.0914 68.2816 61.2562 67.0852 61.1609C64.2665 60.9355 61.5273 60.3738 58.8274 59.5699" stroke="black" stroke-width="1.12123" stroke-linecap="round" stroke-linejoin="round"/>
<path d="M69.4027 83.8142C71.4904 84.6484 73.5288 85.5566 75.7388 86.1251C78.6394 86.8695 81.4424 86.6677 84.287 86.0881C84.7635 85.9905 85.3185 85.8257 85.7244 85.6463" stroke="white" stroke-width="1.12123" stroke-linecap="round" stroke-linejoin="round"/>
<path d="M54.0745 58.591C51.8612 57.9306 49.7252 57.0639 47.5949 56.1837L54.0745 58.591Z" fill="white"/>
<path d="M54.0745 58.591C51.8612 57.9306 49.7252 57.0639 47.5949 56.1837" stroke="black" stroke-width="1.12123" stroke-linecap="round" stroke-linejoin="round"/>
<path d="M104.287 64.9405C104.763 66.8656 104.731 69.5252 104.737 71.4918C104.742 72.9157 104.585 74.7523 104.416 76.155C104.183 78.1037 103.923 79.522 103.397 81.3418C103.011 82.676 101.999 84.0708 100.497 84.655C99.1354 85.1831 97.8191 85.7482 96.3592 86.089C95.8569 86.2068 95.0586 86.2852 94.9869 85.1719C94.9375 84.4038 94.581 76.4913 94.4049 73.297C94.2379 70.2708 93.8354 67.258 93.8791 64.1612C94.4812 63.6555 95.4802 63.5501 96.2695 63.4537C97.7597 63.271 99.03 63.0792 100.518 62.8752C100.518 62.8752 103.674 62.4569 104.289 64.9416L104.287 64.9405Z" fill="white" stroke="black" stroke-width="1.12123" stroke-linecap="round" stroke-linejoin="round"/>
<path d="M91.9776 84.5744C91.861 84.155 91.3329 83.7929 91.0638 83.6213C89.4683 82.6032 83.3016 78.7787 75.2377 78.9974C75.0023 79.0041 74.1154 79.0265 72.9571 79.16C71.2394 79.3584 69.0048 79.817 65.4001 81.0077C60.9701 82.4709 59.1347 83.3197 55.1622 83.6314C52.5049 83.84 50.4026 83.7155 49.2141 83.6101C47.5176 83.4599 45.8246 83.184 44.1416 82.7815C41.6335 82.1817 39.7262 81.7231 37.6632 80.3485C36.7628 79.7486 36.0968 79.151 35.6741 78.7395" stroke="white" stroke-width="1.12123" stroke-linecap="round" stroke-linejoin="round"/>
</g>
<defs>
<clipPath id="clip0_601_23">
<rect width="86.4443" height="79.81" fill="white" transform="translate(25 34.4891)"/>
</clipPath>
</defs>
</svg>
