<svg width="229" height="27" viewBox="0 0 229 27" fill="none" xmlns="http://www.w3.org/2000/svg">
<g filter="url(#filter0_d_485_6460)">
<path d="M21.7829 20.9891L14.5109 10.9811L21.3989 4.18913H13.4309L7.28692 10.6931V4.18913H0.566919V20.9891H7.28692V17.5571L9.85492 15.0371L14.0069 20.9891H21.7829ZM32.5042 7.54914L29.7202 14.6531L26.7442 7.54914H20.1922L26.5282 20.3411L23.7442 25.7891H30.2002L38.9602 7.54914H32.5042ZM47.6823 21.5651C53.2263 21.5651 56.8023 18.8051 56.8023 14.2691C56.8023 9.73314 53.2263 6.97313 47.6823 6.97313C42.1383 6.97313 38.5623 9.73314 38.5623 14.2691C38.5623 18.8051 42.1383 21.5651 47.6823 21.5651ZM47.6823 16.8611C45.9303 16.8611 44.6583 15.9011 44.6583 14.2691C44.6583 12.6371 45.9303 11.6771 47.6823 11.6771C49.4583 11.6771 50.7063 12.6371 50.7063 14.2691C50.7063 15.9011 49.4583 16.8611 47.6823 16.8611ZM69.8229 20.9891H76.6149L71.1909 13.1171L76.3509 7.54914H69.4629L65.1669 12.3731V3.22914H58.6869V20.9891H65.1669V18.4211L66.9429 16.6451L69.8229 20.9891ZM88.2335 7.54914V15.3251C87.3695 16.4771 86.5535 16.9091 85.6655 16.9091C84.5615 16.9091 83.8895 16.2131 83.8895 15.2531V7.54914H77.4095V15.6371C77.4095 19.0451 79.5935 21.4691 83.2895 21.4691C85.3775 21.4691 87.0095 20.7251 88.2335 19.2131V20.9891H94.7135V7.54914H88.2335ZM105.473 11.9171C103.625 11.8211 102.881 11.7491 102.881 11.3411C102.881 10.9331 103.769 10.8131 105.065 10.8131C107.081 10.8131 108.929 11.1251 110.321 11.8451L112.889 8.58114C110.897 7.52513 108.137 6.97313 105.089 6.97313C100.241 6.97313 96.857 8.89314 96.857 11.8211C96.857 14.9891 100.817 16.3091 104.825 16.5251C106.745 16.6211 107.297 16.7651 107.297 17.1731C107.297 17.6051 106.649 17.7251 105.185 17.7251C102.473 17.7251 100.385 17.0291 98.825 16.1891L96.305 19.3331C98.321 20.5571 101.225 21.5651 104.993 21.5651C110.753 21.5651 113.393 19.2131 113.393 16.4771C113.393 13.3811 109.841 12.1331 105.473 11.9171ZM123.596 21.5651C129.14 21.5651 132.716 18.8051 132.716 14.2691C132.716 9.73314 129.14 6.97313 123.596 6.97313C118.052 6.97313 114.476 9.73314 114.476 14.2691C114.476 18.8051 118.052 21.5651 123.596 21.5651ZM123.596 16.8611C121.844 16.8611 120.572 15.9011 120.572 14.2691C120.572 12.6371 121.844 11.6771 123.596 11.6771C125.372 11.6771 126.62 12.6371 126.62 14.2691C126.62 15.9011 125.372 16.8611 123.596 16.8611ZM161.466 20.9891L156.906 15.6851C159.33 14.7971 160.938 13.0211 160.938 10.2851C160.938 6.10914 157.17 4.18913 152.514 4.18913H140.442V20.9891H147.114V16.3811H150.114L153.882 20.9891H161.466ZM147.114 8.79714H151.938C153.234 8.79714 154.146 9.22914 154.146 10.4771C154.146 11.7251 153.234 12.1571 151.938 12.1571H147.114V8.79714ZM170.714 7.02114C168.482 7.02114 165.53 7.40513 163.562 8.19713L164.642 12.1571C166.37 11.4371 168.098 11.2211 169.346 11.2211C171.746 11.2211 173.066 12.0371 173.066 13.3331V14.1491C172.058 13.1651 170.354 12.5891 168.314 12.5891C165.578 12.5891 162.17 13.6691 162.17 17.0291C162.17 20.3891 165.578 21.4691 168.314 21.4691C170.354 21.4691 172.058 20.8931 173.066 19.9091V19.9811C173.066 20.3411 173.234 20.7251 173.474 20.9891H179.954C179.57 20.2211 179.402 19.4531 179.402 18.4931V13.4291C179.402 9.32513 176.186 7.02114 170.714 7.02114ZM173.162 17.1011C172.394 17.9171 171.242 18.1331 170.402 18.1331C169.442 18.1331 168.41 17.8451 168.41 17.0291C168.41 16.2131 169.442 15.9251 170.402 15.9251C171.242 15.9251 172.394 16.1411 173.162 16.9571V17.1011ZM187.998 7.06913C183.846 7.06913 181.062 9.73314 181.062 14.2691C181.062 18.8051 183.846 21.4691 187.998 21.4691C189.918 21.4691 191.67 20.9171 192.966 19.3811V20.9891H199.446V3.22914H192.966V9.15714C191.67 7.62113 189.918 7.06913 187.998 7.06913ZM189.966 16.9091C188.142 16.9091 187.158 15.8531 187.158 14.2691C187.158 12.6851 188.142 11.6291 189.966 11.6291C190.998 11.6291 192.102 11.9651 192.966 13.0691V15.4691C192.102 16.5731 190.998 16.9091 189.966 16.9091ZM205.224 6.66114C207.336 6.66114 208.8 5.55714 208.8 3.80514C208.8 2.05313 207.336 0.949135 205.224 0.949135C203.112 0.949135 201.648 2.05313 201.648 3.80514C201.648 5.55714 203.112 6.66114 205.224 6.66114ZM208.464 7.54914H201.984V20.9891H208.464V7.54914ZM219.479 21.5651C225.023 21.5651 228.599 18.8051 228.599 14.2691C228.599 9.73314 225.023 6.97313 219.479 6.97313C213.935 6.97313 210.359 9.73314 210.359 14.2691C210.359 18.8051 213.935 21.5651 219.479 21.5651ZM219.479 16.8611C217.727 16.8611 216.455 15.9011 216.455 14.2691C216.455 12.6371 217.727 11.6771 219.479 11.6771C221.255 11.6771 222.503 12.6371 222.503 14.2691C222.503 15.9011 221.255 16.8611 219.479 16.8611Z" fill="white"/>
<path d="M21.7829 20.9891V21.4891H22.7643L22.1874 20.6952L21.7829 20.9891ZM14.5109 10.9811L14.1599 10.6251L13.8536 10.9271L14.1064 11.275L14.5109 10.9811ZM21.3989 4.18913L21.75 4.54516L22.6181 3.68913H21.3989V4.18913ZM13.4309 4.18913V3.68913H13.2154L13.0675 3.84578L13.4309 4.18913ZM7.28692 10.6931H6.78692V11.9505L7.65039 11.0365L7.28692 10.6931ZM7.28692 4.18913H7.78692V3.68913H7.28692V4.18913ZM0.566919 4.18913V3.68913H0.0669185V4.18913H0.566919ZM0.566919 20.9891H0.0669185V21.4891H0.566919V20.9891ZM7.28692 20.9891V21.4891H7.78692V20.9891H7.28692ZM7.28692 17.5571L6.93672 17.2003L6.78692 17.3473V17.5571H7.28692ZM9.85492 15.0371L10.265 14.7511L9.92672 14.2661L9.50472 14.6803L9.85492 15.0371ZM14.0069 20.9891L13.5968 21.2752L13.7461 21.4891H14.0069V20.9891ZM22.1874 20.6952L14.9154 10.6872L14.1064 11.275L21.3784 21.283L22.1874 20.6952ZM14.862 11.3372L21.75 4.54516L21.0479 3.83311L14.1599 10.6251L14.862 11.3372ZM21.3989 3.68913H13.4309V4.68913H21.3989V3.68913ZM13.0675 3.84578L6.92345 10.3498L7.65039 11.0365L13.7944 4.53249L13.0675 3.84578ZM7.78692 10.6931V4.18913H6.78692V10.6931H7.78692ZM7.28692 3.68913H0.566919V4.68913H7.28692V3.68913ZM0.0669185 4.18913V20.9891H1.06692V4.18913H0.0669185ZM0.566919 21.4891H7.28692V20.4891H0.566919V21.4891ZM7.78692 20.9891V17.5571H6.78692V20.9891H7.78692ZM7.63712 17.914L10.2051 15.394L9.50472 14.6803L6.93672 17.2003L7.63712 17.914ZM9.44484 15.3232L13.5968 21.2752L14.417 20.7031L10.265 14.7511L9.44484 15.3232ZM14.0069 21.4891H21.7829V20.4891H14.0069V21.4891ZM32.5042 7.54914V7.04914H32.1631L32.0386 7.3667L32.5042 7.54914ZM29.7202 14.6531L29.259 14.8463L29.7356 15.9841L30.1857 14.8356L29.7202 14.6531ZM26.7442 7.54914L27.2053 7.35594L27.0768 7.04914H26.7442V7.54914ZM20.1922 7.54914V7.04914H19.3865L19.7441 7.77106L20.1922 7.54914ZM26.5282 20.3411L26.9734 20.5687L27.0879 20.3446L26.9762 20.1192L26.5282 20.3411ZM23.7442 25.7891L23.2989 25.5616L22.9272 26.2891H23.7442V25.7891ZM30.2002 25.7891V26.2891H30.5147L30.6509 26.0056L30.2002 25.7891ZM38.9602 7.54914L39.4109 7.7656L39.755 7.04914H38.9602V7.54914ZM32.0386 7.3667L29.2546 14.4707L30.1857 14.8356L32.9697 7.73157L32.0386 7.3667ZM30.1813 14.4599L27.2053 7.35594L26.283 7.74233L29.259 14.8463L30.1813 14.4599ZM26.7442 7.04914H20.1922V8.04914H26.7442V7.04914ZM19.7441 7.77106L26.0801 20.5631L26.9762 20.1192L20.6402 7.32721L19.7441 7.77106ZM26.0829 20.1136L23.2989 25.5616L24.1894 26.0167L26.9734 20.5687L26.0829 20.1136ZM23.7442 26.2891H30.2002V25.2891H23.7442V26.2891ZM30.6509 26.0056L39.4109 7.7656L38.5095 7.33267L29.7495 25.5727L30.6509 26.0056ZM38.9602 7.04914H32.5042V8.04914H38.9602V7.04914ZM47.6823 22.0651C50.5312 22.0651 52.9319 21.3564 54.6317 20.0101C56.3446 18.6534 57.3023 16.6819 57.3023 14.2691H56.3023C56.3023 16.3924 55.472 18.0689 54.0108 19.2262C52.5367 20.3938 50.3774 21.0651 47.6823 21.0651V22.0651ZM57.3023 14.2691C57.3023 11.8564 56.3446 9.88488 54.6317 8.52819C52.9319 7.18183 50.5312 6.47313 47.6823 6.47313V7.47313C50.3774 7.47313 52.5367 8.14444 54.0108 9.31208C55.472 10.4694 56.3023 12.1459 56.3023 14.2691H57.3023ZM47.6823 6.47313C44.8334 6.47313 42.4327 7.18183 40.7328 8.52819C39.02 9.88488 38.0623 11.8564 38.0623 14.2691H39.0623C39.0623 12.1459 39.8926 10.4694 41.3537 9.31208C42.8279 8.14444 44.9872 7.47313 47.6823 7.47313V6.47313ZM38.0623 14.2691C38.0623 16.6819 39.02 18.6534 40.7328 20.0101C42.4327 21.3564 44.8334 22.0651 47.6823 22.0651V21.0651C44.9872 21.0651 42.8279 20.3938 41.3537 19.2262C39.8926 18.0689 39.0623 16.3924 39.0623 14.2691H38.0623ZM47.6823 16.3611C46.8931 16.3611 46.2589 16.1448 45.8319 15.7918C45.4152 15.4473 45.1583 14.9433 45.1583 14.2691H44.1583C44.1583 15.227 44.5373 16.019 45.1947 16.5625C45.8417 17.0974 46.7195 17.3611 47.6823 17.3611V16.3611ZM45.1583 14.2691C45.1583 13.595 45.4152 13.091 45.8319 12.7465C46.2589 12.3934 46.8931 12.1771 47.6823 12.1771V11.1771C46.7195 11.1771 45.8417 11.4408 45.1947 11.9758C44.5373 12.5193 44.1583 13.3113 44.1583 14.2691H45.1583ZM47.6823 12.1771C48.4848 12.1771 49.1178 12.3941 49.5406 12.7456C49.953 13.0885 50.2063 13.5919 50.2063 14.2691H51.2063C51.2063 13.3144 50.8356 12.5218 50.18 11.9767C49.5347 11.4402 48.6558 11.1771 47.6823 11.1771V12.1771ZM50.2063 14.2691C50.2063 14.9464 49.953 15.4498 49.5406 15.7927C49.1178 16.1442 48.4848 16.3611 47.6823 16.3611V17.3611C48.6558 17.3611 49.5347 17.0981 50.18 16.5616C50.8356 16.0165 51.2063 15.2239 51.2063 14.2691H50.2063ZM69.8229 20.9891L69.4061 21.2654L69.5544 21.4891H69.8229V20.9891ZM76.6149 20.9891V21.4891H77.5666L77.0266 20.7054L76.6149 20.9891ZM71.1909 13.1171L70.8241 12.7773L70.5519 13.071L70.7791 13.4008L71.1909 13.1171ZM76.3509 7.54914L76.7176 7.889L77.4959 7.04914H76.3509V7.54914ZM69.4629 7.54914V7.04914H69.2386L69.0895 7.21661L69.4629 7.54914ZM65.1669 12.3731H64.6669V13.6864L65.5403 12.7057L65.1669 12.3731ZM65.1669 3.22914H65.6669V2.72914H65.1669V3.22914ZM58.6869 3.22914V2.72914H58.1869V3.22914H58.6869ZM58.6869 20.9891H58.1869V21.4891H58.6869V20.9891ZM65.1669 20.9891V21.4891H65.6669V20.9891H65.1669ZM65.1669 18.4211L64.8133 18.0676L64.6669 18.214V18.4211H65.1669ZM66.9429 16.6451L67.3596 16.3688L67.0217 15.8592L66.5893 16.2916L66.9429 16.6451ZM69.8229 21.4891H76.6149V20.4891H69.8229V21.4891ZM77.0266 20.7054L71.6026 12.8334L70.7791 13.4008L76.2031 21.2728L77.0266 20.7054ZM71.5576 13.457L76.7176 7.889L75.9841 7.20927L70.8241 12.7773L71.5576 13.457ZM76.3509 7.04914H69.4629V8.04914H76.3509V7.04914ZM69.0895 7.21661L64.7935 12.0406L65.5403 12.7057L69.8363 7.88166L69.0895 7.21661ZM65.6669 12.3731V3.22914H64.6669V12.3731H65.6669ZM65.1669 2.72914H58.6869V3.72914H65.1669V2.72914ZM58.1869 3.22914V20.9891H59.1869V3.22914H58.1869ZM58.6869 21.4891H65.1669V20.4891H58.6869V21.4891ZM65.6669 20.9891V18.4211H64.6669V20.9891H65.6669ZM65.5204 18.7747L67.2964 16.9987L66.5893 16.2916L64.8133 18.0676L65.5204 18.7747ZM66.5261 16.9214L69.4061 21.2654L70.2396 20.7128L67.3596 16.3688L66.5261 16.9214ZM88.2335 7.54914V7.04914H87.7335V7.54914H88.2335ZM88.2335 15.3251L88.6335 15.6251L88.7335 15.4918V15.3251H88.2335ZM83.8895 7.54914H84.3895V7.04914H83.8895V7.54914ZM77.4095 7.54914V7.04914H76.9095V7.54914H77.4095ZM88.2335 19.2131H88.7335V17.8008L87.8449 18.8985L88.2335 19.2131ZM88.2335 20.9891H87.7335V21.4891H88.2335V20.9891ZM94.7135 20.9891V21.4891H95.2135V20.9891H94.7135ZM94.7135 7.54914H95.2135V7.04914H94.7135V7.54914ZM87.7335 7.54914V15.3251H88.7335V7.54914H87.7335ZM87.8335 15.0251C87.0286 16.0983 86.3453 16.4091 85.6655 16.4091V17.4091C86.7617 17.4091 87.7104 16.8559 88.6335 15.6251L87.8335 15.0251ZM85.6655 16.4091C85.22 16.4091 84.9076 16.2706 84.7099 16.0806C84.513 15.8914 84.3895 15.6131 84.3895 15.2531H83.3895C83.3895 15.8532 83.602 16.4029 84.0171 16.8017C84.4313 17.1997 85.007 17.4091 85.6655 17.4091V16.4091ZM84.3895 15.2531V7.54914H83.3895V15.2531H84.3895ZM83.8895 7.04914H77.4095V8.04914H83.8895V7.04914ZM76.9095 7.54914V15.6371H77.9095V7.54914H76.9095ZM76.9095 15.6371C76.9095 17.4485 77.4915 19.0397 78.6058 20.1805C79.7221 21.3234 81.3287 21.9691 83.2895 21.9691V20.9691C81.5543 20.9691 80.2208 20.4029 79.3212 19.4818C78.4194 18.5586 77.9095 17.2338 77.9095 15.6371H76.9095ZM83.2895 21.9691C85.5155 21.9691 87.2954 21.1667 88.6221 19.5277L87.8449 18.8985C86.7236 20.2836 85.2395 20.9691 83.2895 20.9691V21.9691ZM87.7335 19.2131V20.9891H88.7335V19.2131H87.7335ZM88.2335 21.4891H94.7135V20.4891H88.2335V21.4891ZM95.2135 20.9891V7.54914H94.2135V20.9891H95.2135ZM94.7135 7.04914H88.2335V8.04914H94.7135V7.04914ZM105.473 11.9171L105.447 12.4165L105.448 12.4165L105.473 11.9171ZM110.321 11.8451L110.091 12.2892L110.458 12.4791L110.714 12.1543L110.321 11.8451ZM112.889 8.58114L113.282 8.8903L113.652 8.41978L113.123 8.13937L112.889 8.58114ZM104.825 16.5251L104.798 17.0244L104.8 17.0245L104.825 16.5251ZM98.825 16.1891L99.062 15.7489L98.6953 15.5514L98.4348 15.8764L98.825 16.1891ZM96.305 19.3331L95.9148 19.0204L95.5586 19.4649L96.0455 19.7605L96.305 19.3331ZM105.499 11.4178C104.563 11.3692 103.954 11.3281 103.579 11.2553C103.388 11.2181 103.317 11.1827 103.303 11.1735C103.302 11.173 103.326 11.1888 103.349 11.2278C103.373 11.2698 103.381 11.3122 103.381 11.3411H102.381C102.381 11.6359 102.534 11.8627 102.749 12.006C102.932 12.128 103.163 12.1932 103.389 12.237C103.848 12.3261 104.535 12.3691 105.447 12.4165L105.499 11.4178ZM103.381 11.3411C103.381 11.4575 103.304 11.5113 103.316 11.5032C103.342 11.486 103.422 11.4489 103.59 11.4134C103.92 11.3438 104.422 11.3131 105.065 11.3131V10.3131C104.412 10.3131 103.822 10.3425 103.384 10.4349C103.168 10.4804 102.945 10.5497 102.764 10.6698C102.569 10.7989 102.381 11.0207 102.381 11.3411H103.381ZM105.065 11.3131C107.04 11.3131 108.798 11.6205 110.091 12.2892L110.551 11.401C109.06 10.6297 107.122 10.3131 105.065 10.3131V11.3131ZM110.714 12.1543L113.282 8.8903L112.496 8.27197L109.928 11.536L110.714 12.1543ZM113.123 8.13937C111.036 7.03277 108.187 6.47313 105.089 6.47313V7.47313C108.087 7.47313 110.758 8.0175 112.655 9.0229L113.123 8.13937ZM105.089 6.47313C102.607 6.47313 100.455 6.96327 98.9033 7.86712C97.3429 8.77628 96.357 10.1323 96.357 11.8211H97.357C97.357 10.5819 98.0631 9.51399 99.4067 8.73115C100.759 7.943 102.723 7.47313 105.089 7.47313V6.47313ZM96.357 11.8211C96.357 13.6635 97.5261 14.9252 99.1126 15.7264C100.69 16.5233 102.76 16.9146 104.798 17.0244L104.852 16.0259C102.882 15.9197 100.968 15.543 99.5634 14.8338C98.1679 14.1291 97.357 13.1467 97.357 11.8211H96.357ZM104.8 17.0245C105.767 17.0729 106.334 17.1319 106.654 17.2158C106.815 17.258 106.855 17.2923 106.849 17.2876C106.818 17.2596 106.797 17.2058 106.797 17.1731H107.797C107.797 16.9365 107.707 16.7117 107.512 16.5389C107.343 16.3895 107.125 16.3053 106.908 16.2484C106.472 16.1343 105.803 16.0734 104.85 16.0258L104.8 17.0245ZM106.797 17.1731C106.797 17.134 106.821 17.0847 106.847 17.0627C106.85 17.06 106.812 17.0913 106.672 17.1253C106.392 17.1934 105.92 17.2251 105.185 17.2251V18.2251C105.914 18.2251 106.498 18.1968 106.908 18.0969C107.113 18.047 107.329 17.9673 107.499 17.8205C107.692 17.6546 107.797 17.4282 107.797 17.1731H106.797ZM105.185 17.2251C102.563 17.2251 100.556 16.5534 99.062 15.7489L98.5879 16.6294C100.214 17.5048 102.383 18.2251 105.185 18.2251V17.2251ZM98.4348 15.8764L95.9148 19.0204L96.6951 19.6458L99.2151 16.5018L98.4348 15.8764ZM96.0455 19.7605C98.1399 21.0321 101.134 22.0651 104.993 22.0651V21.0651C101.316 21.0651 98.5021 20.0821 96.5645 18.9057L96.0455 19.7605ZM104.993 22.0651C107.933 22.0651 110.142 21.4661 111.632 20.4618C113.138 19.4473 113.893 18.0261 113.893 16.4771H112.893C112.893 17.6642 112.328 18.7869 111.074 19.6325C109.804 20.4882 107.813 21.0651 104.993 21.0651V22.0651ZM113.893 16.4771C113.893 14.6861 112.844 13.4544 111.297 12.671C109.771 11.8986 107.709 11.5271 105.498 11.4177L105.448 12.4165C107.605 12.5232 109.503 12.8837 110.845 13.5632C112.166 14.2319 112.893 15.1722 112.893 16.4771H113.893ZM123.596 22.0651C126.445 22.0651 128.846 21.3564 130.546 20.0101C132.259 18.6534 133.216 16.6819 133.216 14.2691H132.216C132.216 16.3924 131.386 18.0689 129.925 19.2262C128.451 20.3938 126.291 21.0651 123.596 21.0651V22.0651ZM133.216 14.2691C133.216 11.8564 132.259 9.88488 130.546 8.52819C128.846 7.18183 126.445 6.47313 123.596 6.47313V7.47313C126.291 7.47313 128.451 8.14444 129.925 9.31208C131.386 10.4694 132.216 12.1459 132.216 14.2691H133.216ZM123.596 6.47313C120.747 6.47313 118.347 7.18183 116.647 8.52819C114.934 9.88488 113.976 11.8564 113.976 14.2691H114.976C114.976 12.1459 115.807 10.4694 117.268 9.31208C118.742 8.14444 120.901 7.47313 123.596 7.47313V6.47313ZM113.976 14.2691C113.976 16.6819 114.934 18.6534 116.647 20.0101C118.347 21.3564 120.747 22.0651 123.596 22.0651V21.0651C120.901 21.0651 118.742 20.3938 117.268 19.2262C115.807 18.0689 114.976 16.3924 114.976 14.2691H113.976ZM123.596 16.3611C122.807 16.3611 122.173 16.1448 121.746 15.7918C121.329 15.4473 121.072 14.9433 121.072 14.2691H120.072C120.072 15.227 120.451 16.019 121.109 16.5625C121.756 17.0974 122.634 17.3611 123.596 17.3611V16.3611ZM121.072 14.2691C121.072 13.595 121.329 13.091 121.746 12.7465C122.173 12.3934 122.807 12.1771 123.596 12.1771V11.1771C122.634 11.1771 121.756 11.4408 121.109 11.9758C120.451 12.5193 120.072 13.3113 120.072 14.2691H121.072ZM123.596 12.1771C124.399 12.1771 125.032 12.3941 125.455 12.7456C125.867 13.0885 126.12 13.5919 126.12 14.2691H127.12C127.12 13.3144 126.75 12.5218 126.094 11.9767C125.449 11.4402 124.57 11.1771 123.596 11.1771V12.1771ZM126.12 14.2691C126.12 14.9464 125.867 15.4498 125.455 15.7927C125.032 16.1442 124.399 16.3611 123.596 16.3611V17.3611C124.57 17.3611 125.449 17.0981 126.094 16.5616C126.75 16.0165 127.12 15.2239 127.12 14.2691H126.12ZM161.466 20.9891V21.4891H162.555L161.845 20.6632L161.466 20.9891ZM156.906 15.6851L156.734 15.2156L156.056 15.4639L156.527 16.0111L156.906 15.6851ZM140.442 4.18913V3.68913H139.942V4.18913H140.442ZM140.442 20.9891H139.942V21.4891H140.442V20.9891ZM147.114 20.9891V21.4891H147.614V20.9891H147.114ZM147.114 16.3811V15.8811H146.614V16.3811H147.114ZM150.114 16.3811L150.501 16.0646L150.351 15.8811H150.114V16.3811ZM153.882 20.9891L153.495 21.3056L153.645 21.4891H153.882V20.9891ZM147.114 8.79714V8.29714H146.614V8.79714H147.114ZM147.114 12.1571H146.614V12.6571H147.114V12.1571ZM161.845 20.6632L157.285 15.3592L156.527 16.0111L161.087 21.3151L161.845 20.6632ZM157.078 16.1546C158.356 15.6865 159.449 14.9731 160.224 13.9871C161.003 12.996 161.438 11.7574 161.438 10.2851H160.438C160.438 11.5489 160.069 12.5662 159.438 13.3692C158.803 14.1772 157.88 14.7958 156.734 15.2156L157.078 16.1546ZM161.438 10.2851C161.438 8.01965 160.403 6.34265 158.747 5.25335C157.113 4.17953 154.9 3.68913 152.514 3.68913V4.68913C154.784 4.68913 156.782 5.15874 158.197 6.08892C159.588 7.00362 160.438 8.37462 160.438 10.2851H161.438ZM152.514 3.68913H140.442V4.68913H152.514V3.68913ZM139.942 4.18913V20.9891H140.942V4.18913H139.942ZM140.442 21.4891H147.114V20.4891H140.442V21.4891ZM147.614 20.9891V16.3811H146.614V20.9891H147.614ZM147.114 16.8811H150.114V15.8811H147.114V16.8811ZM149.727 16.6976L153.495 21.3056L154.269 20.6726L150.501 16.0646L149.727 16.6976ZM153.882 21.4891H161.466V20.4891H153.882V21.4891ZM147.114 9.29714H151.938V8.29714H147.114V9.29714ZM151.938 9.29714C152.546 9.29714 152.979 9.40152 153.248 9.58319C153.48 9.74082 153.646 9.99372 153.646 10.4771H154.646C154.646 9.71255 154.355 9.12545 153.808 8.75508C153.297 8.40875 152.625 8.29714 151.938 8.29714V9.29714ZM153.646 10.4771C153.646 10.9606 153.48 11.2135 153.248 11.3711C152.979 11.5528 152.546 11.6571 151.938 11.6571V12.6571C152.625 12.6571 153.297 12.5455 153.808 12.1992C154.355 11.8288 154.646 11.2417 154.646 10.4771H153.646ZM151.938 11.6571H147.114V12.6571H151.938V11.6571ZM147.614 12.1571V8.79714H146.614V12.1571H147.614ZM163.562 8.19713L163.375 7.73329L162.963 7.89941L163.08 8.32869L163.562 8.19713ZM164.642 12.1571L164.16 12.2887L164.309 12.8374L164.834 12.6187L164.642 12.1571ZM173.066 14.1491L172.717 14.5069L173.566 15.336V14.1491H173.066ZM173.066 19.9091H173.566V18.7223L172.717 19.5513L173.066 19.9091ZM173.474 20.9891L173.104 21.3255L173.253 21.4891H173.474V20.9891ZM179.954 20.9891V21.4891H180.763L180.401 20.7655L179.954 20.9891ZM173.162 17.1011L173.526 17.4438L173.662 17.2994V17.1011H173.162ZM173.162 16.9571H173.662V16.7588L173.526 16.6145L173.162 16.9571ZM170.714 6.52114C168.446 6.52114 165.424 6.9087 163.375 7.73329L163.749 8.66098C165.636 7.90157 168.518 7.52114 170.714 7.52114V6.52114ZM163.08 8.32869L164.16 12.2887L165.124 12.0256L164.044 8.06558L163.08 8.32869ZM164.834 12.6187C166.489 11.9291 168.15 11.7211 169.346 11.7211V10.7211C168.046 10.7211 166.251 10.9452 164.45 11.6956L164.834 12.6187ZM169.346 11.7211C170.501 11.7211 171.331 11.9193 171.855 12.2235C172.355 12.5139 172.566 12.8894 172.566 13.3331H173.566C173.566 12.4809 173.117 11.8003 172.357 11.3588C171.621 10.931 170.591 10.7211 169.346 10.7211V11.7211ZM172.566 13.3331V14.1491H173.566V13.3331H172.566ZM173.415 13.7913C172.282 12.6852 170.432 12.0891 168.314 12.0891V13.0891C170.276 13.0891 171.834 13.6451 172.717 14.5069L173.415 13.7913ZM168.314 12.0891C166.893 12.0891 165.262 12.3675 163.966 13.1162C162.645 13.8797 161.67 15.141 161.67 17.0291H162.67C162.67 15.5572 163.399 14.5985 164.466 13.982C165.558 13.3508 166.999 13.0891 168.314 13.0891V12.0891ZM161.67 17.0291C161.67 18.9172 162.645 20.1785 163.966 20.942C165.262 21.6908 166.893 21.9691 168.314 21.9691V20.9691C166.999 20.9691 165.558 20.7075 164.466 20.0762C163.399 19.4597 162.67 18.501 162.67 17.0291H161.67ZM168.314 21.9691C170.432 21.9691 172.282 21.3731 173.415 20.2669L172.717 19.5513C171.834 20.4132 170.276 20.9691 168.314 20.9691V21.9691ZM172.566 19.9091V19.9811H173.566V19.9091H172.566ZM172.566 19.9811C172.566 20.4818 172.792 20.9822 173.104 21.3255L173.844 20.6528C173.676 20.4681 173.566 20.2005 173.566 19.9811H172.566ZM173.474 21.4891H179.954V20.4891H173.474V21.4891ZM180.401 20.7655C180.056 20.0757 179.902 19.3859 179.902 18.4931H178.902C178.902 19.5204 179.084 20.3666 179.507 21.2127L180.401 20.7655ZM179.902 18.4931V13.4291H178.902V18.4931H179.902ZM179.902 13.4291C179.902 11.2295 179.031 9.47257 177.405 8.28265C175.801 7.10836 173.51 6.52114 170.714 6.52114V7.52114C173.39 7.52114 175.443 8.08591 176.815 9.08962C178.165 10.0777 178.902 11.5248 178.902 13.4291H179.902ZM172.798 16.7585C172.168 17.4278 171.184 17.6331 170.402 17.6331V18.6331C171.3 18.6331 172.62 18.4065 173.526 17.4438L172.798 16.7585ZM170.402 17.6331C169.96 17.6331 169.542 17.5651 169.255 17.4329C168.979 17.3057 168.91 17.1705 168.91 17.0291H167.91C167.91 17.7038 168.357 18.1205 168.837 18.3413C169.306 18.5572 169.884 18.6331 170.402 18.6331V17.6331ZM168.91 17.0291C168.91 16.8878 168.979 16.7525 169.255 16.6253C169.542 16.4932 169.96 16.4251 170.402 16.4251V15.4251C169.884 15.4251 169.306 15.5011 168.837 15.7169C168.357 15.9377 167.91 16.3545 167.91 17.0291H168.91ZM170.402 16.4251C171.184 16.4251 172.168 16.6305 172.798 17.2998L173.526 16.6145C172.62 15.6518 171.3 15.4251 170.402 15.4251V16.4251ZM172.662 16.9571V17.1011H173.662V16.9571H172.662ZM192.966 19.3811H193.466V18.0132L192.584 19.0587L192.966 19.3811ZM192.966 20.9891H192.466V21.4891H192.966V20.9891ZM199.446 20.9891V21.4891H199.946V20.9891H199.446ZM199.446 3.22914H199.946V2.72914H199.446V3.22914ZM192.966 3.22914V2.72914H192.466V3.22914H192.966ZM192.966 9.15714L192.584 9.47957L193.466 10.5251V9.15714H192.966ZM192.966 13.0691H193.466V12.8967L193.36 12.761L192.966 13.0691ZM192.966 15.4691L193.36 15.7773L193.466 15.6415V15.4691H192.966ZM187.998 6.56913C185.814 6.56913 183.943 7.2722 182.617 8.61719C181.292 9.96194 180.562 11.8978 180.562 14.2691H181.562C181.562 12.1045 182.225 10.4403 183.329 9.31908C184.434 8.19807 186.031 7.56913 187.998 7.56913V6.56913ZM180.562 14.2691C180.562 16.6405 181.292 18.5763 182.617 19.9211C183.943 21.2661 185.814 21.9691 187.998 21.9691V20.9691C186.031 20.9691 184.434 20.3402 183.329 19.2192C182.225 18.0979 181.562 16.4338 181.562 14.2691H180.562ZM187.998 21.9691C190.018 21.9691 191.931 21.384 193.348 19.7036L192.584 19.0587C191.41 20.4503 189.818 20.9691 187.998 20.9691V21.9691ZM192.466 19.3811V20.9891H193.466V19.3811H192.466ZM192.966 21.4891H199.446V20.4891H192.966V21.4891ZM199.946 20.9891V3.22914H198.946V20.9891H199.946ZM199.446 2.72914H192.966V3.72914H199.446V2.72914ZM192.466 3.22914V9.15714H193.466V3.22914H192.466ZM193.348 8.8347C191.931 7.15428 190.018 6.56913 187.998 6.56913V7.56913C189.818 7.56913 191.41 8.08799 192.584 9.47957L193.348 8.8347ZM189.966 16.4091C189.15 16.4091 188.586 16.1746 188.227 15.8251C187.87 15.4765 187.658 14.9567 187.658 14.2691H186.658C186.658 15.1656 186.939 15.9658 187.529 16.5412C188.119 17.1157 188.958 17.4091 189.966 17.4091V16.4091ZM187.658 14.2691C187.658 13.5816 187.87 13.0618 188.227 12.7132C188.586 12.3637 189.15 12.1291 189.966 12.1291V11.1291C188.958 11.1291 188.119 11.4226 187.529 11.9971C186.939 12.5725 186.658 13.3727 186.658 14.2691H187.658ZM189.966 12.1291C190.879 12.1291 191.823 12.4194 192.573 13.3773L193.36 12.761C192.382 11.5109 191.117 11.1291 189.966 11.1291V12.1291ZM192.466 13.0691V15.4691H193.466V13.0691H192.466ZM192.573 15.161C191.823 16.1189 190.879 16.4091 189.966 16.4091V17.4091C191.117 17.4091 192.382 17.0274 193.36 15.7773L192.573 15.161ZM208.464 7.54914H208.964V7.04914H208.464V7.54914ZM201.984 7.54914V7.04914H201.484V7.54914H201.984ZM201.984 20.9891H201.484V21.4891H201.984V20.9891ZM208.464 20.9891V21.4891H208.964V20.9891H208.464ZM205.224 7.16114C206.362 7.16114 207.374 6.86403 208.113 6.28329C208.863 5.69371 209.3 4.83491 209.3 3.80514H208.3C208.3 4.52737 208.004 5.09656 207.495 5.49698C206.974 5.90624 206.198 6.16114 205.224 6.16114V7.16114ZM209.3 3.80514C209.3 2.77536 208.863 1.91656 208.113 1.32698C207.374 0.746239 206.362 0.449135 205.224 0.449135V1.44913C206.198 1.44913 206.974 1.70403 207.495 2.11329C208.004 2.51371 208.3 3.08291 208.3 3.80514H209.3ZM205.224 0.449135C204.086 0.449135 203.074 0.746239 202.335 1.32698C201.584 1.91656 201.148 2.77536 201.148 3.80514H202.148C202.148 3.08291 202.443 2.51371 202.953 2.11329C203.474 1.70403 204.25 1.44913 205.224 1.44913V0.449135ZM201.148 3.80514C201.148 4.83491 201.584 5.69371 202.335 6.28329C203.074 6.86403 204.086 7.16114 205.224 7.16114V6.16114C204.25 6.16114 203.474 5.90624 202.953 5.49698C202.443 5.09656 202.148 4.52737 202.148 3.80514H201.148ZM208.464 7.04914H201.984V8.04914H208.464V7.04914ZM201.484 7.54914V20.9891H202.484V7.54914H201.484ZM201.984 21.4891H208.464V20.4891H201.984V21.4891ZM208.964 20.9891V7.54914H207.964V20.9891H208.964ZM219.479 22.0651C222.328 22.0651 224.729 21.3564 226.429 20.0101C228.141 18.6534 229.099 16.6819 229.099 14.2691H228.099C228.099 16.3924 227.269 18.0689 225.808 19.2262C224.334 20.3938 222.174 21.0651 219.479 21.0651V22.0651ZM229.099 14.2691C229.099 11.8564 228.141 9.88488 226.429 8.52819C224.729 7.18183 222.328 6.47313 219.479 6.47313V7.47313C222.174 7.47313 224.334 8.14444 225.808 9.31208C227.269 10.4694 228.099 12.1459 228.099 14.2691H229.099ZM219.479 6.47313C216.63 6.47313 214.23 7.18183 212.53 8.52819C210.817 9.88488 209.859 11.8564 209.859 14.2691H210.859C210.859 12.1459 211.689 10.4694 213.151 9.31208C214.625 8.14444 216.784 7.47313 219.479 7.47313V6.47313ZM209.859 14.2691C209.859 16.6819 210.817 18.6534 212.53 20.0101C214.23 21.3564 216.63 22.0651 219.479 22.0651V21.0651C216.784 21.0651 214.625 20.3938 213.151 19.2262C211.689 18.0689 210.859 16.3924 210.859 14.2691H209.859ZM219.479 16.3611C218.69 16.3611 218.056 16.1448 217.629 15.7918C217.212 15.4473 216.955 14.9433 216.955 14.2691H215.955C215.955 15.227 216.334 16.019 216.992 16.5625C217.639 17.0974 218.516 17.3611 219.479 17.3611V16.3611ZM216.955 14.2691C216.955 13.595 217.212 13.091 217.629 12.7465C218.056 12.3934 218.69 12.1771 219.479 12.1771V11.1771C218.516 11.1771 217.639 11.4408 216.992 11.9758C216.334 12.5193 215.955 13.3113 215.955 14.2691H216.955ZM219.479 12.1771C220.282 12.1771 220.915 12.3941 221.338 12.7456C221.75 13.0885 222.003 13.5919 222.003 14.2691H223.003C223.003 13.3144 222.632 12.5218 221.977 11.9767C221.332 11.4402 220.453 11.1771 219.479 11.1771V12.1771ZM222.003 14.2691C222.003 14.9464 221.75 15.4498 221.338 15.7927C220.915 16.1442 220.282 16.3611 219.479 16.3611V17.3611C220.453 17.3611 221.332 17.0981 221.977 16.5616C222.632 16.0165 223.003 15.2239 223.003 14.2691H222.003Z" fill="black"/>
</g>
<defs>
<filter id="filter0_d_485_6460" x="0.566895" y="0.949097" width="228.032" height="25.8401" filterUnits="userSpaceOnUse" color-interpolation-filters="sRGB">
<feFlood flood-opacity="0" result="BackgroundImageFix"/>
<feColorMatrix in="SourceAlpha" type="matrix" values="0 0 0 0 0 0 0 0 0 0 0 0 0 0 0 0 0 0 127 0" result="hardAlpha"/>
<feOffset dy="1"/>
<feComposite in2="hardAlpha" operator="out"/>
<feColorMatrix type="matrix" values="0 0 0 0 0 0 0 0 0 0 0 0 0 0 0 0 0 0 1 0"/>
<feBlend mode="normal" in2="BackgroundImageFix" result="effect1_dropShadow_485_6460"/>
<feBlend mode="normal" in="SourceGraphic" in2="effect1_dropShadow_485_6460" result="shape"/>
</filter>
</defs>
</svg>
