<svg width="40" height="40" viewBox="0 0 40 40" fill="none" xmlns="http://www.w3.org/2000/svg">
<path d="M20 22.5457C20.3726 22.3425 20.6251 21.9474 20.6251 21.4934V18.648C20.6251 17.9864 21.1616 17.45 21.8232 17.45C22.4848 17.45 23.0212 17.9864 23.0212 18.648V22.2421C23.0212 22.9037 23.5577 23.4402 24.2193 23.4402C24.8808 23.4402 25.4173 22.9037 25.4173 22.2421V21.4934C25.4173 20.8318 25.9538 20.2953 26.6154 20.2953C27.2769 20.2953 27.8134 20.8318 27.8134 21.4934V23.5899V23.4402C27.8134 24.1018 28.3499 24.6382 29.0115 24.6382C29.673 24.6382 30.2095 24.1018 30.2095 23.4402V18.9475C30.2095 18.5028 30.6382 17.9534 30.7824 17.9033" stroke="black" stroke-width="0.848916" stroke-miterlimit="10" stroke-linecap="round"/>
<path d="M30.7824 25.8225C30.7824 28.7998 28.3686 31.2137 25.3912 31.2137C22.4138 31.2137 20 28.7998 20 25.8225V14.459C20 11.4816 22.4138 9.06775 25.3912 9.06775C28.3686 9.06775 30.7824 11.4816 30.7824 14.459V25.6727V25.8225Z" stroke="black" stroke-miterlimit="10" stroke-linecap="round"/>
<path d="M25.3909 33.3282V36.7726" stroke="black" stroke-width="0.848916" stroke-miterlimit="10" stroke-linecap="round"/>
<path d="M20.5992 36.7727H30.1836" stroke="black" stroke-width="0.848916" stroke-miterlimit="10" stroke-linecap="round"/>
<path d="M32.5795 22.3961V26.14C32.5795 30.0942 29.3864 33.3029 25.4379 33.328C21.4587 33.3534 18.2029 30.0722 18.2029 26.0928V12.8646C18.2029 9.72886 15.6386 7.25489 12.5076 7.42909C9.6716 7.58651 7.42047 9.93637 7.42047 12.8117V33.1785C7.42047 35.1634 9.02969 36.7726 11.0146 36.7726C12.9995 36.7726 14.6088 35.1634 14.6088 33.1785V3.22729" stroke="black" stroke-miterlimit="10" stroke-linecap="round"/>
</svg>
