<svg width="36" height="39" viewBox="0 0 36 39" fill="none" xmlns="http://www.w3.org/2000/svg">
<g filter="url(#filter0_d_485_6901)">
<rect y="0.489136" width="36" height="36" rx="18" fill="white" shape-rendering="crispEdges"/>
<path d="M17.9967 10.4891C13.5873 10.4891 10 14.0771 10 18.4865C10 22.8998 13.5873 26.4891 17.9967 26.4891C22.41 26.4891 26 22.8991 26 18.4865C26 14.0771 22.41 10.4891 17.9967 10.4891ZM13.9387 21.4251C14.8543 21.1447 15.8064 21.0013 16.764 20.9998C18.3733 20.9998 19.962 21.4078 21.3587 22.1798C21.442 22.2251 21.5173 22.3745 21.552 22.5611C21.5853 22.7478 21.572 22.9391 21.5173 23.0385C21.4916 23.0857 21.4567 23.1274 21.4147 23.1611C21.3727 23.1947 21.3245 23.2197 21.2728 23.2346C21.221 23.2495 21.1669 23.254 21.1134 23.2478C21.06 23.2415 21.0083 23.2248 20.9613 23.1985C19.9355 22.6357 18.807 22.2847 17.6429 22.1663C16.4789 22.0479 15.3028 22.1645 14.1847 22.5091C14.1333 22.5257 14.0792 22.532 14.0255 22.5274C13.9717 22.5229 13.9194 22.5077 13.8715 22.4828C13.8237 22.4578 13.7813 22.4236 13.7468 22.3821C13.7123 22.3407 13.6864 22.2927 13.6707 22.2411C13.5993 22.0078 13.7467 21.4878 13.9387 21.4251ZM13.59 18.4785C14.6244 18.1975 15.6915 18.0551 16.7633 18.0551C18.6927 18.0551 20.608 18.5218 22.3033 19.4058C22.4227 19.4658 22.51 19.5685 22.55 19.6938C22.5702 19.7571 22.5776 19.8238 22.5716 19.89C22.5657 19.9562 22.5465 20.0205 22.5153 20.0791C22.364 20.3751 22.1867 20.5745 22.0753 20.5745C21.9941 20.5741 21.9141 20.5545 21.842 20.5171C20.2748 19.6989 18.5319 19.2747 16.764 19.2811C15.7806 19.2792 14.8015 19.4104 13.8533 19.6711C13.7901 19.6884 13.724 19.6931 13.659 19.6849C13.5939 19.6766 13.5311 19.6557 13.4742 19.6232C13.4172 19.5907 13.3672 19.5473 13.3271 19.4954C13.2869 19.4436 13.2573 19.3844 13.24 19.3211C13.1653 19.0398 13.3367 18.5478 13.59 18.4785ZM13.5 16.5545C13.425 16.5737 13.3469 16.5779 13.2702 16.5668C13.1935 16.5558 13.1198 16.5296 13.0533 16.4899C12.9868 16.4501 12.9288 16.3976 12.8827 16.3354C12.8366 16.2731 12.8033 16.2023 12.7847 16.1271C12.7027 15.7951 12.91 15.4098 13.2113 15.3338C14.3737 15.0475 15.5663 14.9022 16.7633 14.9011C19.0633 14.9011 21.2673 15.4185 23.3127 16.4391C23.4532 16.509 23.5602 16.6318 23.6102 16.7806C23.6602 16.9294 23.6491 17.0919 23.5793 17.2325C23.484 17.4245 23.2773 17.6311 23.0493 17.6311C22.9599 17.6308 22.8717 17.611 22.7907 17.5731C20.9204 16.6349 18.8558 16.1494 16.7633 16.1558C15.6733 16.1558 14.5753 16.2898 13.5 16.5545Z" fill="black"/>
<rect x="0.5" y="0.989136" width="35" height="35" rx="17.5" stroke="black" shape-rendering="crispEdges"/>
</g>
<defs>
<filter id="filter0_d_485_6901" x="0" y="0.489136" width="36" height="38" filterUnits="userSpaceOnUse" color-interpolation-filters="sRGB">
<feFlood flood-opacity="0" result="BackgroundImageFix"/>
<feColorMatrix in="SourceAlpha" type="matrix" values="0 0 0 0 0 0 0 0 0 0 0 0 0 0 0 0 0 0 127 0" result="hardAlpha"/>
<feOffset dy="2"/>
<feComposite in2="hardAlpha" operator="out"/>
<feColorMatrix type="matrix" values="0 0 0 0 0 0 0 0 0 0 0 0 0 0 0 0 0 0 1 0"/>
<feBlend mode="normal" in2="BackgroundImageFix" result="effect1_dropShadow_485_6901"/>
<feBlend mode="normal" in="SourceGraphic" in2="effect1_dropShadow_485_6901" result="shape"/>
</filter>
</defs>
</svg>
